<svg viewBox="0 0 26 20" fill="none" xmlns="http://www.w3.org/2000/svg"><path d="M10.577 2.559c3.11-3.099 6.515-2.789 9.308 0 .2.2.41.387.611.587 2.36 2.365 2.938 5.172 1.187 7.858.165.124.337.258.52.404 1.47 1.165 3.973 3.12 2.164 4.93-1.79 1.788-3.8-.692-4.948-2.15a38.029 38.029 0 0 1-.41-.529c-2.677 1.726-5.469 1.143-7.821-1.21-.2-.199-.411-.386-.61-.586-2.79-2.789-3.112-6.206 0-9.304v0Z" fill="#78543C" stroke="#78543C" stroke-width=".715" stroke-miterlimit="10" stroke-linecap="round" stroke-linejoin="round"/><path d="M19.885 2.559c-2.793-2.789-6.197-3.099-9.308 0-3.11 3.098-2.788 6.515 0 9.304 2.392 2.392 5.239 2.954 7.957 1.12.24.38.529.75.884 1.206 2.582 3.276 3.644 2.255 4.338 1.561s1.71-1.756-1.553-4.342A15.27 15.27 0 0 0 21 10.524c1.839-2.718 1.277-5.569-1.115-7.965h0Z" fill="#FFF17F" stroke="#78543C" stroke-width=".715" stroke-miterlimit="10" stroke-linecap="round" stroke-linejoin="round"/><path d="M15.232 11.338a4.128 4.128 0 1 0 0-8.255 4.128 4.128 0 0 0 0 8.255v0Z" fill="#F9EFC8" stroke="#78543C" stroke-width=".715" stroke-miterlimit="10" stroke-linecap="round" stroke-linejoin="round"/><path d="M14.273 4.688a1.545 1.545 0 0 1 1.946-.067" fill="#F9EFC8"/><path d="M14.273 4.688a1.545 1.545 0 0 1 1.946-.067" stroke="#78543C" stroke-width=".715" stroke-miterlimit="10" stroke-linecap="round" stroke-linejoin="round"/><path d="M13.705 15.719a4.566 4.566 0 0 0-1.65-.33 162.328 162.328 0 0 0-3.133-.028c-2.437 0-6.602.04-7.231.34-.63.153-.691.954-.691 1.62 0 .436.026.933.223 1.264.126.213.708.64 1.067.726.63.3 4.794.34 7.231.34 2.438 0 6.602-.04 7.232-.34.63-.152.69-.953.69-1.619 0-.445-.027-.951-.234-1.283-.122-.196-.123-.333-.838-.333.575.018-.573.027-.715 0-.703.139-1.313-.095-1.95-.357Z" fill="#78543C" stroke="#78543C" stroke-width=".715" stroke-miterlimit="10" stroke-linecap="round" stroke-linejoin="round"/><path d="M13.718 15.681a6.216 6.216 0 0 0-1.755-.303c-.978-.013-1.948-.017-2.741-.017-2.53 0-6.852.037-7.505.31-.654.14-.717.87-.717 1.478 0 .607.063 1.338.717 1.477.653.274 4.975.31 7.505.31 2.53 0 6.851-.036 7.505-.31.654-.14.717-.87.717-1.477 0-.608-.062-1.148-.715-1.287a.513.513 0 0 0-.2-.011c-.34.021-.684.066-1.024.093-.61.049-1.196-.08-1.787-.263Z" fill="#FFF17F" stroke="#78543C" stroke-width=".715" stroke-miterlimit="10" stroke-linecap="round" stroke-linejoin="round"/><g fill="#78543C"><path fill-rule="evenodd" clip-rule="evenodd" d="M7.064 9.652c-2.283.023-4.886.1-5.373.332-.63.152-.691.953-.691 1.619 0 .437.026.933.223 1.265.126.212.708.639 1.067.726.63.3 4.794.34 7.231.34l.863-.002a10.66 10.66 0 0 1-.63-.583c-.107-.106-.216-.209-.325-.312a16.61 16.61 0 0 1-.332-.318c-.963-.964-1.653-1.997-2.033-3.067Z"/><path d="m1.69 9.984.085.347a.359.359 0 0 0 .07-.025l-.154-.322Zm5.374-.332.336-.12a.357.357 0 0 0-.34-.237l.004.357Zm-5.84 3.216.307-.182-.308.182Zm1.066.726.153-.323a.36.36 0 0 0-.07-.025l-.083.348Zm8.094.338.001.357a.358.358 0 0 0 .23-.63l-.231.273Zm-.63-.583.252-.253-.252.253Zm-.325-.312.245-.26-.245.26Zm-.332-.318-.252.252.252-.252Zm-7.253-2.413a.997.997 0 0 1 .194-.052c.109-.021.249-.042.418-.062.337-.039.77-.07 1.266-.096.99-.05 2.206-.075 3.345-.086l-.007-.715c-1.143.011-2.37.036-3.374.087-.502.026-.953.059-1.312.1-.18.02-.34.044-.476.071a1.596 1.596 0 0 0-.361.108l.307.645Zm-.487 1.297c0-.332.017-.65.094-.896.073-.236.177-.34.324-.376l-.168-.695c-.484.117-.725.49-.84.859-.11.359-.124.774-.124 1.108h.714Zm.174 1.082a1.268 1.268 0 0 1-.14-.46 4.528 4.528 0 0 1-.034-.622H.643c0 .223.006.476.04.722.035.243.1.502.233.725l.615-.365Zm.843.561c-.114-.027-.305-.125-.5-.261a2.403 2.403 0 0 1-.24-.19 1.099 1.099 0 0 1-.077-.076c-.02-.023-.026-.034-.026-.033l-.615.364c.058.1.15.194.235.272.091.084.2.17.313.249.218.152.497.311.742.37l.168-.695Zm7.147.33c-1.218 0-2.863-.01-4.282-.057a35.603 35.603 0 0 1-1.865-.102 8.669 8.669 0 0 1-.634-.075 1.399 1.399 0 0 1-.297-.071l-.307.645c.128.061.306.1.486.131.192.032.426.059.689.082.526.047 1.19.08 1.904.104 1.431.048 3.086.058 4.306.058v-.715Zm.861-.002-.86.002v.715c.268 0 .559 0 .863-.002l-.003-.715Zm.233.085a10.326 10.326 0 0 1-.609-.563l-.505.506c.213.213.43.414.651.602l.463-.545Zm-.609-.563a15.9 15.9 0 0 0-.332-.32l-.49.521c.11.104.215.203.317.305l.505-.506Zm-.332-.32c-.112-.105-.22-.206-.324-.31l-.505.505c.112.113.228.222.338.326l.49-.52Zm-.324-.31c-.934-.934-1.59-1.924-1.95-2.934l-.673.24c.402 1.13 1.125 2.207 2.118 3.2l.505-.506Z"/></g><path fill-rule="evenodd" clip-rule="evenodd" d="M7.064 9.652c-2.31.024-4.858.095-5.347.3-.654.14-.717.87-.717 1.478 0 .607.063 1.338.717 1.477.653.274 4.975.31 7.505.31h.398l-.191-.181c-.112-.105-.223-.21-.332-.319-.963-.963-1.652-1.996-2.033-3.065Z" fill="#FFF17F"/><path d="m7.064 9.652.337-.12a.357.357 0 0 0-.34-.237l.003.357Zm-5.347.3.074.35a.365.365 0 0 0 .064-.02l-.138-.33Zm0 2.955.138-.33a.355.355 0 0 0-.064-.02l-.074.35Zm7.903.31v.357a.357.357 0 0 0 .247-.615l-.247.258Zm-.191-.181.245-.26-.245.26Zm-.332-.319-.252.253.252-.253ZM7.06 9.295a96.547 96.547 0 0 0-3.37.082 23.8 23.8 0 0 0-1.293.09c-.335.035-.64.08-.818.156l.276.66c.065-.028.263-.068.616-.105.334-.035.763-.064 1.253-.087a95.9 95.9 0 0 1 3.344-.081l-.008-.715Zm-5.418.308c-.48.102-.74.435-.866.793-.12.34-.133.728-.133 1.034h.714c0-.302.018-.582.093-.796.069-.193.168-.295.341-.332l-.149-.7Zm-1 1.827c0 .305.015.694.134 1.033.127.359.386.691.866.794l.15-.7c-.174-.037-.273-.139-.342-.332-.075-.213-.093-.494-.093-.795H.643Zm.937 1.807c.127.053.306.088.492.115.197.03.438.054.71.075a42.67 42.67 0 0 0 1.974.095c1.484.043 3.201.053 4.467.053v-.715c-1.264 0-2.973-.01-4.446-.053a42.224 42.224 0 0 1-1.939-.093 9.559 9.559 0 0 1-.662-.069 1.653 1.653 0 0 1-.32-.068l-.276.66Zm7.643.338h.398l-.001-.716h-.397v.716Zm.645-.616-.193-.184-.49.52.188.18.495-.516Zm-.193-.184c-.112-.105-.22-.207-.324-.31l-.505.505c.112.113.228.221.338.326l.49-.52Zm-.324-.31c-.934-.934-1.59-1.924-1.95-2.933l-.673.24c.403 1.129 1.125 2.205 2.118 3.198l.505-.506Z" fill="#78543C"/><g fill="#78543C"><path fill-rule="evenodd" clip-rule="evenodd" d="M8.058 3.926c-2.45.01-5.807.071-6.367.338C1.06 4.416 1 5.217 1 5.883c0 .437.026.933.223 1.265.126.213.708.64 1.067.726.422.201 2.435.285 4.45.319-.124-1.412.29-2.859 1.318-4.267Z"/><path d="m1.69 4.264.085.347a.358.358 0 0 0 .07-.024l-.154-.323Zm6.368-.338.289.21a.357.357 0 0 0-.29-.568l.001.358ZM1.223 7.148l.308-.182-.308.182Zm1.067.726.153-.323a.358.358 0 0 0-.07-.024l-.083.347Zm4.45.319-.006.357a.357.357 0 0 0 .362-.389l-.356.032ZM1.844 4.587c.025-.012.098-.036.244-.062a6.95 6.95 0 0 1 .525-.07c.422-.042.962-.074 1.567-.1a113.35 113.35 0 0 1 3.88-.072l-.004-.715c-1.226.005-2.683.023-3.905.073a28.65 28.65 0 0 0-1.61.103c-.22.022-.417.048-.58.077a1.768 1.768 0 0 0-.424.12l.307.646Zm-.487 1.296c0-.331.017-.65.094-.896.073-.236.177-.34.324-.376l-.168-.695c-.484.117-.725.49-.84.859-.11.359-.124.774-.124 1.108h.714Zm.174 1.083a1.268 1.268 0 0 1-.14-.461 4.529 4.529 0 0 1-.034-.622H.643c0 .223.006.477.04.722.035.243.1.502.233.726l.615-.365Zm.843.56c-.114-.027-.305-.125-.5-.26a2.411 2.411 0 0 1-.24-.19 1.085 1.085 0 0 1-.077-.077.203.203 0 0 1-.026-.033l-.615.364c.058.1.15.195.235.273.091.083.2.169.313.248.218.152.497.311.742.37l.168-.694Zm4.372.31A65.294 65.294 0 0 1 3.94 7.74c-.4-.025-.746-.055-1.014-.09-.285-.038-.435-.076-.483-.099l-.307.646c.164.078.424.126.697.161.291.039.655.07 1.062.095.816.051 1.83.08 2.84.097l.011-.715Zm.35.325c-.116-1.314.267-2.676 1.25-4.025l-.577-.42C6.698 5.183 6.251 6.714 6.384 8.223l.712-.063Z"/></g><path fill-rule="evenodd" clip-rule="evenodd" d="M8.056 3.926c-2.513.012-5.778.072-6.34.307-.653.14-.716.87-.716 1.477 0 .608.063 1.339.717 1.478.465.195 2.792.27 5.006.296C6.77 6.3 7.2 5.1 8.056 3.926Z" fill="#FFF17F"/><path d="m8.056 3.926.289.21a.357.357 0 0 0-.29-.568l.001.358Zm-6.34.307.075.35a.358.358 0 0 0 .064-.02l-.138-.33Zm0 2.955.139-.33a.357.357 0 0 0-.064-.02l-.074.35Zm5.007.296-.004.357a.357.357 0 0 0 .361-.343l-.357-.014Zm1.331-3.916a128 128 0 0 0-3.914.07c-.602.024-1.149.054-1.582.094a8.48 8.48 0 0 0-.569.068 1.977 1.977 0 0 0-.41.103l.276.66c.029-.012.106-.034.25-.057.136-.022.31-.043.518-.062a29.77 29.77 0 0 1 1.545-.09 124.11 124.11 0 0 1 3.89-.07l-.004-.716Zm-6.412.316c-.48.102-.74.434-.866.793-.12.339-.133.728-.133 1.033h.714c0-.301.018-.581.093-.795.069-.193.168-.295.341-.332l-.149-.7Zm-1 1.826c0 .306.015.695.134 1.034.127.358.386.691.866.793l.15-.7c-.174-.036-.273-.138-.342-.331-.075-.214-.093-.494-.093-.796H.643Zm.937 1.807c.171.072.456.117.766.15.328.037.74.065 1.201.089.924.047 2.064.072 3.173.085l.008-.715a86.89 86.89 0 0 1-3.145-.084 20.854 20.854 0 0 1-1.16-.085c-.325-.036-.506-.074-.567-.1l-.276.66Zm5.501-.019c.044-1.104.445-2.237 1.265-3.362l-.578-.42c-.891 1.222-1.35 2.489-1.401 3.754l.714.028Z" fill="#78543C"/></svg>