<svg viewBox="0 0 13 5" fill="none" xmlns="http://www.w3.org/2000/svg"><path fill-rule="evenodd"  d="M-982.72 2.5C-984.937 4 -986.813 5 -988.293 5C-989.568 5 -990.358 4.80337 -990.907 4L-995 4.5V0.5L-990.907 1C-990.358 0.196631 -989.372 0 -988.293 0C-987.214 0 -984.937 1 -982.72 2.5ZM-969.416 2.5C-969.416 1.67157 -968.729 1 -967.881 1H-4.909C-4.061 1 -3.37402 1.67157 -3.37402 2.5C-3.37402 3.32843 -4.061 4 -4.909 4H-967.881C-968.729 4 -969.416 3.32843 -969.416 2.5ZM6.29297 5C4.81297 5 2.93697 4 0.719971 2.5C2.93697 1 5.21397 0 6.29297 0C7.37197 0 8.35798 0.196631 8.90698 1L13 0.5V4.5L8.90698 4C8.35798 4.80337 7.56797 5 6.29297 5Z" fill="url(#paint0_linear_185_172870)"/><linearGradient id="paint0_linear_185_172870" x1="-995" y1="2.49999" x2="13" y2="2.49999" gradientUnits="userSpaceOnUse"><stop stop-color="#85630F"/><stop offset="0.263471" stop-color="#E5BA14"/><stop offset="0.488984" stop-color="#86660A"/><stop offset="0.727744" stop-color="#E7BB15"/><stop offset="1" stop-color="#85630F"/></linearGradient></svg>
