<svg viewBox="0 0 13 5" fill="none" xmlns="http://www.w3.org/2000/svg"><path fill-rule="evenodd" clip-rule="evenodd" d="M12.2802 2.5C10.0629 4 8.1868 5 6.7071 5C5.4322 5 4.64161 4.80337 4.0934 4L0 4.5V0.5L4.0934 1C4.64161 0.196631 5.62843 0 6.7071 0C7.78577 0 10.0629 1 12.2802 2.5ZM25.5838 2.5C25.5838 1.67157 26.271 1 27.1188 1H990.091C990.939 1 991.626 1.67157 991.626 2.5C991.626 3.32843 990.939 4 990.091 4H27.1188C26.271 4 25.5838 3.32843 25.5838 2.5ZM1001.29 5C999.813 5 997.937 4 995.72 2.5C997.937 1 1000.21 0 1001.29 0C1002.37 0 1003.36 0.196631 1003.91 1L1008 0.5V4.5L1003.91 4C1003.36 4.80337 1002.57 5 1001.29 5Z" fill="url(#paint0_linear_185_172846)"/><linearGradient id="paint0_linear_185_172846" x1="0" y1="2.49999" x2="1008" y2="2.49999" gradientUnits="userSpaceOnUse"><stop stop-color="#85630F"/><stop offset="0.263471" stop-color="#E5BA14"/><stop offset="0.488984" stop-color="#86660A"/><stop offset="0.727744" stop-color="#E7BB15"/><stop offset="1" stop-color="#85630F"/></linearGradient></svg>
