<svg viewBox="0 0 358 3" fill="none" preserveAspectRatio="none" xmlns="http://www.w3.org/2000/svg"><g clip-path="url(#clip0_1814_63531)"><path fill-rule="evenodd" clip-rule="evenodd" d="M-18.1878 1.5C-19.0567 3 -19.7919 4 -20.3717 4C-20.8713 4 -21.1811 3.80337 -21.3959 3L-23 3.5V-0.5L-21.3959 0C-21.1811 -0.803369 -20.7944 -1 -20.3717 -1C-19.949 -1 -19.0567 0 -18.1878 1.5ZM-12.9746 1.5C-12.9746 0.671573 -12.7053 0 -12.3731 0H364.982C365.314 0 365.584 0.671573 365.584 1.5C365.584 2.32843 365.314 3 364.982 3H-12.3731C-12.7053 3 -12.9746 2.32843 -12.9746 1.5ZM369.372 4C368.792 4 368.057 3 367.188 1.5C368.057 0 368.949 -1 369.372 -1C369.794 -1 370.181 -0.803369 370.396 0L372 -0.5V3.5L370.396 3C370.181 3.80337 369.871 4 369.372 4Z" fill="url(#paint0_linear_1814_63531)"/><g><path d="M48.3333 0H356L308.667 3H1L48.3333 0Z" fill="#A3810D" fill-opacity="0.15"/></g><g style="mix-blend-mode:multiply"><path d="M48.3333 0H356L308.667 3H1L48.3333 0Z" fill="#A3810D" fill-opacity="0.15"/></g><g style="mix-blend-mode:multiply"><path d="M350.643 0H0.999999L7.35713 3H357L350.643 0Z" fill="#A3810D" fill-opacity="0.15"/></g></g><defs><linearGradient id="paint0_linear_1814_63531" x1="-23" y1="1.5" x2="372" y2="1.5" gradientUnits="userSpaceOnUse"><stop stop-color="#85630F"/><stop offset="0.263471" stop-color="#E5BA14"/><stop offset="0.488984" stop-color="#86660A"/><stop offset="0.727744" stop-color="#E7BB15"/><stop offset="1" stop-color="#85630F"/></linearGradient><clipPath id="clip0_1814_63531"><rect width="358" height="3" rx="1.5" fill="white"/></clipPath></defs></svg>
