<svg viewBox="0 0 26 26" fill="none" xmlns="http://www.w3.org/2000/svg"><g stroke="#9A3F19" stroke-miterlimit="10"><path d="M12.412 1.3C6.28 1.3 1.309 6.272 1.309 12.404c0 6.328 5.95 12.279 12.279 12.279 6.131 0 11.101-4.971 11.101-11.103.001-6.327-5.95-12.278-12.278-12.278h0Z" fill="#9A3F19" stroke-linecap="round" stroke-linejoin="round"/><path d="M12.403 23.504c6.131 0 11.101-4.97 11.101-11.101 0-6.132-4.97-11.102-11.101-11.102C6.27 1.3 1.3 6.27 1.3 12.403c0 6.131 4.97 11.101 11.102 11.101Z" fill="#FFF17F" stroke-linecap="round" stroke-linejoin="round"/><path d="M12.835 19.604a1.652 1.652 0 1 0 0-3.304 1.652 1.652 0 0 0 0 3.304ZM17 9.794c0-2.696-1.499-4.493-4.5-4.493-3.002 0-4.643 1.801-4.49 4.493.057.98.763 1.606 1.925 1.606s1.865-.646 1.929-1.606a.658.658 0 0 1 .636-.643.643.643 0 0 1 .642.643.66.66 0 0 1-.642.657c-1.016.075-1.603.903-1.603 1.926v.483c0 .774.082 1.42.338 1.684a3.088 3.088 0 0 0 1.588.4 3.069 3.069 0 0 0 1.584-.4.83.83 0 0 0 .305-.672C16.232 13.176 17 11.716 17 9.794Z" fill="#F9EFC8"/></g></svg>