<svg viewBox="0 0 57 45" fill="none" xmlns="http://www.w3.org/2000/svg"><g clip-path="url(#a)"><path d="M.233 12.837C.625 5.14 2.855.75 3.64.259c0 1.505-.177 4.254 1.159 5.118C6.468 6.457 7.02 7.767 13.5 6 19.979 4.233 24 3.75 33.75 4.5v36.461c-7.09 0-8.262.077-14.25.863-5.988.785-7.941.409-10.55 0-2.135-.335-5.847-1.623-7.417-6.139C-.037 31.17-.26 22.457.233 12.837Z" fill="url(#b)"/><path fill-rule="evenodd" clip-rule="evenodd" d="M3.637 7.133c1.669 1.08 4.227 1.417 8.814.504 4.587-.914 10.597-2.195 21.3-2.195V3.466c-11.453 0-15.75.627-19.563 1.667-6.348 1.731-7.38 1.163-9.289.31a89.438 89.438 0 0 0-.1-.065C3.598 4.6 3.622 2.291 3.64.741c0-.17.003-.331.003-.48-2.251 1.236-1.86 5.672-.005 6.872Z" fill="url(#c)"/><g style="mix-blend-mode:screen" filter="url(#d)"><path d="M9.986 27.981c.036 9.791 1.762 13.54 1.51 13.554-.436.024-3.311-1.715-3.048-13.234.25-10.921 1.992-18.121 2.43-18.146.437-.024-.93 7.467-.892 17.826Z" fill="#36FF61"/></g><path d="M54.6 37.118c-3.245-9.619-9.655-15.72-9.655-15.72-.556-.15 8.603-8.65 9.655-10.263 1.031-1.581.929-2.144-1.138-3.4-2.349-1.43-11.461-2.485-11.461-2.485s-5.25-1.5-9-1.5v37.219c1.5 0 3 .189 6.75 1.03 5.893 1.323 11.211 2.382 13.82 1.973 2.135-.335 2.557-2.324 1.029-6.854Z" fill="url(#e)"/><path fill-rule="evenodd" clip-rule="evenodd" d="M54.256 43.879c.678-.214 1.493-.47 1.752-1.636.198-.89 0-3.524-1.228-6.573-.492-1.222-5.147-8.83-6.453-10.373-.461-.545-1.051-1.306-1.617-2.036-.607-.783-1.186-1.53-1.546-1.932.864-.752 1.943-1.8 2.888-2.718.319-.31.622-.604.897-.868 1.681-1.613 4.804-5.233 6.563-7.936v-.815h-.944c-.657 1.172-2.453 4.084-4.375 6.349-1.627 1.917-4.148 4.606-5.699 6.227l-.952.803c.722.312 2.507 3.237 5 7.322l.458.751c3.811 6.242 4.751 7.959 5.266 10.334.412 1.9-.119 2.957-.435 3.247.13-.053.274-.099.425-.146Z" fill="url(#f)"/><path fill-rule="evenodd" clip-rule="evenodd" d="M46.556 7.482c-3.3-.9-10.865-2.033-13.555-2.033V3.463c4.5 0 9.094.709 13.781 1.67 4.688.96 10.772 3.036 8.434 5.098-3.23-1.306-4.362-1.893-8.66-2.749Z" fill="url(#g)"/><g style="mix-blend-mode:screen" filter="url(#h)"><path d="M47.43 16.256c3.142-4.372 3.58-6.6 3.697-6.525.203.13.928 1.836-2.907 6.88-3.635 4.782-6.737 7.425-6.94 7.294-.204-.13 2.825-3.024 6.15-7.65Z" fill="#F5864D"/></g></g><defs><linearGradient id="b" x1="33.75" y1="21.271" x2="0" y2="21.271" gradientUnits="userSpaceOnUse"><stop stop-color="#A47000"/><stop offset=".4" stop-color="#E8940E"/><stop offset=".6" stop-color="#F4C016"/><stop offset=".8" stop-color="#FEE923"/><stop offset="1" stop-color="#FFF17F"/></linearGradient><linearGradient id="c" x1="33.752" y1="4.213" x2="2.096" y2="4.213" gradientUnits="userSpaceOnUse"><stop stop-color="#502C15"/><stop offset=".495" stop-color="#AA5438"/><stop offset="1" stop-color="#F5864D"/></linearGradient><linearGradient id="e" x1="33.001" y1="23.905" x2="55.513" y2="23.905" gradientUnits="userSpaceOnUse"><stop stop-color="#A47000"/><stop offset=".4" stop-color="#E8940E"/><stop offset=".6" stop-color="#F4C016"/><stop offset=".8" stop-color="#FEE923"/><stop offset="1" stop-color="#FFF17F"/></linearGradient><linearGradient id="f" x1="49.808" y1="8.992" x2="49.808" y2="44.025" gradientUnits="userSpaceOnUse"><stop stop-color="#F5864D"/><stop offset=".505" stop-color="#AA5438"/><stop offset="1" stop-color="#502C15"/></linearGradient><linearGradient id="g" x1="55.733" y1="6.847" x2="33.001" y2="6.847" gradientUnits="userSpaceOnUse"><stop stop-color="#F5864D"/><stop offset=".505" stop-color="#AA5438"/><stop offset="1" stop-color="#502C15"/></linearGradient><filter id="d" x="-3.569" y="-1.845" width="27.09" height="55.38" filterUnits="userSpaceOnUse" color-interpolation-filters="sRGB"><feFlood flood-opacity="0" result="BackgroundImageFix"/><feBlend in="SourceGraphic" in2="BackgroundImageFix" result="shape"/><feGaussianBlur stdDeviation="6" result="effect1_foregroundBlur_131_2771"/></filter><filter id="h" x="38.27" y="6.729" width="16.046" height="20.181" filterUnits="userSpaceOnUse" color-interpolation-filters="sRGB"><feFlood flood-opacity="0" result="BackgroundImageFix"/><feBlend in="SourceGraphic" in2="BackgroundImageFix" result="shape"/><feGaussianBlur stdDeviation="1.5" result="effect1_foregroundBlur_131_2771"/></filter><clipPath id="a"><path fill="#fff" transform="matrix(1 0 0 -1 0 45)" d="M0 0h57v45H0z"/></clipPath></defs></svg>