<svg width="70" height="24" viewBox="0 0 70 24" fill="none" xmlns="http://www.w3.org/2000/svg">
<path d="M43.3056 17.719C43.3056 19.1475 42.1475 20.3056 40.7191 20.3056H29.2603C27.8432 20.3056 26.6945 19.1569 26.6945 17.74V6.16788C26.6945 4.80179 27.8018 3.69444 29.1679 3.69444H40.8321C42.1982 3.69444 43.3056 4.80179 43.3056 6.16756V17.719Z" fill="#EBAB1F"/>
<path d="M28.2619 10.1597V14.3811L27.5085 14.5502V10.3289L28.2619 10.1597ZM30.2564 10.7041C29.7915 10.8085 29.5061 11.3319 29.5061 11.3319V10.9385L28.775 11.0979V13.6164C28.8643 13.5823 28.9611 13.5626 29.0623 13.5626C29.2252 13.5626 29.3765 13.6114 29.503 13.6948V12.4652C29.5087 11.8763 29.6775 11.5324 30.0302 11.4531C30.34 11.3836 30.4562 11.6144 30.4512 11.9709V13.894L31.1689 13.732L31.1739 11.8149C31.1802 10.8761 30.8014 10.5817 30.2564 10.7041ZM31.3427 10.5212L31.754 10.4288V9.838L32.4814 9.67605V10.2656L32.9992 10.1491L32.992 10.7875L32.4736 10.904L32.4698 12.5025C32.4733 12.6977 32.5074 12.8186 32.7264 12.7694C32.8119 12.7503 32.8802 12.7287 32.9582 12.6989L32.9601 13.2985C32.7784 13.3846 32.6687 13.4194 32.5193 13.4529C32.1033 13.5491 31.7443 13.2784 31.7443 12.7256L31.7468 11.0672L31.3352 11.1596L31.3427 10.5212ZM33.8757 11.73C33.876 11.7974 33.8741 11.8525 33.8851 11.9174C33.9396 12.2413 34.0987 12.4928 34.4261 12.4195C34.7268 12.3522 34.8267 12.1523 34.8844 11.9318L35.6465 11.7607C35.5669 12.2491 35.3029 12.8646 34.4709 13.051C33.7247 13.2183 33.2736 12.7876 33.1499 12.0514C33.0143 11.2445 33.2244 10.0422 34.3302 9.79414C35.1462 9.6112 35.5281 10.0939 35.633 10.7182C35.6747 10.9657 35.6722 11.1496 35.6578 11.33L33.8757 11.73ZM34.9345 10.9366C34.9364 10.8811 34.9285 10.8341 34.9226 10.7987C34.8781 10.5337 34.7321 10.3279 34.4101 10.4003C34.0771 10.4748 33.913 10.7561 33.8826 11.1724L34.9345 10.9366ZM37.4577 10.0087C36.9512 10.1287 36.7069 10.4817 36.704 11.174L36.6975 12.4897L35.9707 12.6529V9.48152L36.6721 9.32426C36.6812 9.40195 36.6978 9.63689 36.6965 9.89438C36.8146 9.48841 36.9766 9.27978 37.4574 9.17202V10.0087H37.4577ZM40.0392 11.7163L40.0352 11.7172L39.3056 11.882C39.2555 11.7908 39.205 11.6461 39.1831 11.5443C39.0797 11.7632 38.9382 12.0154 38.425 12.1307C37.88 12.2532 37.5702 11.882 37.5025 11.5236C37.3424 10.6781 37.9492 10.2675 38.5701 10.1093C38.7934 10.0523 38.9814 10.0187 39.1935 9.96518L39.1828 9.77503C39.1781 9.54354 39.1245 9.26161 38.7345 9.34933C38.3871 9.42732 38.369 9.64723 38.338 9.8073L37.5952 9.97395C37.6046 9.46366 37.8274 8.97123 38.6876 8.77795C39.3607 8.62665 39.9205 8.82651 39.9155 9.65412V11.1584C39.9155 11.1584 39.9334 11.4121 39.9622 11.5343C39.9913 11.6583 40.0392 11.7163 40.0392 11.7163ZM39.1822 10.4792C39.0005 10.5199 38.8476 10.5666 38.707 10.6167C38.3142 10.7784 38.1817 10.9613 38.2305 11.2194C38.2637 11.3955 38.3909 11.5079 38.6262 11.455C39.1283 11.3422 39.1722 10.867 39.1806 10.5287L39.1822 10.4792ZM42.6608 10.0754C42.6201 10.6844 42.336 11.2442 41.5184 11.4277C40.8183 11.585 40.3641 11.2157 40.2262 10.4874C40.0596 9.6065 40.3114 8.40518 41.3373 8.17494C42.2351 7.97321 42.5916 8.62195 42.6276 9.0179L41.9222 9.17641C41.8724 8.94272 41.7574 8.7175 41.4313 8.7908C40.9182 8.90607 40.8753 9.79727 40.9674 10.2847C41.0473 10.7076 41.238 10.8605 41.4996 10.8019C41.7402 10.748 41.878 10.5638 41.9335 10.2393L42.6608 10.0754ZM30.7263 15.4665L29.6975 14.7664C29.6975 14.7664 29.6972 16.4091 29.6972 16.4846C29.6972 16.5372 29.6543 16.5801 29.602 16.5801C29.5494 16.5801 29.5071 16.5372 29.5071 16.4846C29.5071 16.4661 29.5049 14.606 29.5049 14.3789C29.5049 14.1355 29.3072 13.9372 29.0638 13.9372C28.8195 13.9372 28.6221 14.1355 28.6221 14.3789L28.6228 18.0474C28.6228 18.7058 29.1587 19.2428 29.8175 19.2428H29.8965C30.5461 19.2428 31.0677 18.7162 31.0677 18.0662C31.0677 18.0662 31.0683 16.1497 31.0683 16.1303C31.0683 15.8756 30.9277 15.6209 30.7263 15.4665ZM27.7413 14.9196C27.5593 14.9634 27.4468 15.1464 27.4907 15.3284C27.5345 15.5104 27.7175 15.6228 27.8995 15.579L28.4135 15.4555V14.7579L27.7413 14.9196ZM27.7413 15.8183C27.5593 15.8621 27.4468 16.0451 27.4907 16.2271C27.5345 16.4091 27.7175 16.5215 27.8995 16.4777L28.4135 16.3543V15.6566L27.7413 15.8183ZM27.4907 17.1261C27.5342 17.3081 27.7175 17.4206 27.8995 17.3767L28.4135 17.2533V16.5557L27.7413 16.717C27.5593 16.7609 27.4471 16.9441 27.4907 17.1261Z" fill="#502C15"/>
</svg>
