<svg viewBox="0 0 25 24" fill="none" xmlns="http://www.w3.org/2000/svg"><path d="M3.007 11.61c-.084.96-.109 1.949-.109 2.845 0 2.849.271 5.825 1.73 6.563.19.183.47.368.706.486.756.733 4.671 1.488 7.918 1.488s7.163-.738 7.895-1.47c1.47-.738 1.73-3.713 1.73-6.563 0-.974-.028-2.059-.132-3.096 1.7-.404 1.753-1.263 1.753-2.545 0-1.692-.716-3.253-2.511-3.594a9.406 9.406 0 0 0-.883-.192c1.136-3.444-2.477-5.697-5.432-4.491a11.378 11.378 0 0 0-3.043 2.088c-.965-.813-2.067-1.553-3.208-2.088C5.494-.562 3.925 2.644 4.709 5.055c.046.138.092.26.138.375a9.653 9.653 0 0 0-1.73.294c-1.764.334-1.816 1.816-1.816 3.108 0 1.34.495 2.217 1.706 2.778Z" fill="#422815" stroke="#422815" stroke-miterlimit="10"/><g filter="url(#a)"><path d="M23.792 8.832c0-1.292-.046-2.774-1.805-3.108a9.55 9.55 0 0 0-1.73-.294c.046-.116.093-.237.138-.375.802-2.41-.795-5.617-4.723-4.014a11.378 11.378 0 0 0-3.126 2.168 11.38 11.38 0 0 0-3.125-2.168C5.494-.562 3.925 2.644 4.709 5.055c.046.138.092.26.138.375a9.653 9.653 0 0 0-1.73.294c-1.764.334-1.816 1.816-1.816 3.108s.057 2.157 1.73 2.526a31.737 31.737 0 0 0-.133 3.097c0 2.849.271 5.825 1.73 6.563.756.732 4.671 1.488 7.919 1.488 3.246 0 7.162-.738 7.894-1.47 1.471-.739 1.73-3.715 1.73-6.564 0-.974-.028-2.059-.132-3.097 1.701-.403 1.753-1.263 1.753-2.543Z" fill="url(#b)"/></g><path d="M23.792 8.832c0-1.292-.046-2.774-1.805-3.108a9.55 9.55 0 0 0-1.73-.294c.046-.116.093-.237.138-.375.802-2.41-.795-5.617-4.723-4.014a11.378 11.378 0 0 0-3.126 2.168 11.38 11.38 0 0 0-3.125-2.168C5.494-.562 3.925 2.644 4.709 5.055c.046.138.092.26.138.375a9.653 9.653 0 0 0-1.73.294c-1.764.334-1.816 1.816-1.816 3.108s.057 2.157 1.73 2.526a31.737 31.737 0 0 0-.133 3.097c0 2.849.271 5.825 1.73 6.563.756.732 4.671 1.488 7.919 1.488 3.246 0 7.162-.738 7.894-1.47 1.471-.739 1.73-3.715 1.73-6.564 0-.974-.028-2.059-.132-3.097 1.701-.403 1.753-1.263 1.753-2.543Z" stroke="#422815" stroke-miterlimit="10"/><g style="mix-blend-mode:overlay" filter="url(#c)"><path d="M23.792 8.832c0-1.292-.046-2.774-1.805-3.108a9.55 9.55 0 0 0-1.73-.294c.046-.116.093-.237.138-.375.802-2.41-.795-5.617-4.723-4.014a11.378 11.378 0 0 0-3.126 2.168 11.38 11.38 0 0 0-3.125-2.168C5.494-.562 3.925 2.644 4.709 5.055c.046.138.092.26.138.375a9.653 9.653 0 0 0-1.73.294c-1.764.334-1.816 1.816-1.816 3.108s.057 2.157 1.73 2.526a31.737 31.737 0 0 0-.133 3.097c0 2.849.271 5.825 1.73 6.563.756.732 4.671 1.488 7.919 1.488 3.246 0 7.162-.738 7.894-1.47 1.471-.739 1.73-3.715 1.73-6.564 0-.974-.028-2.059-.132-3.097 1.701-.403 1.753-1.263 1.753-2.543Z" fill="url(#d)"/></g><path d="M23.792 8.832c0-1.292-.046-2.774-1.805-3.108a9.55 9.55 0 0 0-1.73-.294c.046-.116.093-.237.138-.375.802-2.41-.795-5.617-4.723-4.014a11.378 11.378 0 0 0-3.126 2.168 11.38 11.38 0 0 0-3.125-2.168C5.494-.562 3.925 2.644 4.709 5.055c.046.138.092.26.138.375a9.653 9.653 0 0 0-1.73.294c-1.764.334-1.816 1.816-1.816 3.108s.057 2.157 1.73 2.526a31.737 31.737 0 0 0-.133 3.097c0 2.849.271 5.825 1.73 6.563.756.732 4.671 1.488 7.919 1.488 3.246 0 7.162-.738 7.894-1.47 1.471-.739 1.73-3.715 1.73-6.564 0-.974-.028-2.059-.132-3.097 1.701-.403 1.753-1.263 1.753-2.543Z" stroke="#422815" stroke-miterlimit="10"/><path d="M14.156 20.078c.139-.848.271-4.227.346-8.033m-3.912 0c.074 3.806.213 7.185.345 8.034m7.233-8.19s-2.808.156-5.623.156c-2.814 0-5.623-.156-5.623-.156m1.586-6.292s2.007-.109 4.037-.109 4.036.11 4.036.11" stroke="#422815" stroke-miterlimit="10" stroke-linecap="round"/><defs><linearGradient id="b" x1="12.547" y1="22.506" x2="12.547" y2=".609" gradientUnits="userSpaceOnUse"><stop stop-color="#A47000"/><stop offset=".4" stop-color="#E8940E"/><stop offset=".6" stop-color="#F4C016"/><stop offset=".8" stop-color="#FEE923"/><stop offset="1" stop-color="#FFF17F"/></linearGradient><linearGradient id="d" x1="12.547" y1=".609" x2="12.547" y2="22.506" gradientUnits="userSpaceOnUse"><stop stop-color="#9A3F19"/><stop offset="1" stop-color="#FF5620"/></linearGradient><filter id="a" x=".801" y=".11" width="23.992" height="23.396" filterUnits="userSpaceOnUse" color-interpolation-filters="sRGB"><feFlood flood-opacity="0" result="BackgroundImageFix"/><feBlend in="SourceGraphic" in2="BackgroundImageFix" result="shape"/><feColorMatrix in="SourceAlpha" values="0 0 0 0 0 0 0 0 0 0 0 0 0 0 0 0 0 0 127 0" result="hardAlpha"/><feOffset dx="1" dy="1.5"/><feGaussianBlur stdDeviation=".25"/><feComposite in2="hardAlpha" operator="arithmetic" k2="-1" k3="1"/><feColorMatrix values="0 0 0 0 0.976471 0 0 0 0 0.937255 0 0 0 0 0.784314 0 0 0 1 0"/><feBlend in2="shape" result="effect1_innerShadow_3193_176703"/></filter><filter id="c" x="1.301" y=".609" width="22.992" height="22.396" filterUnits="userSpaceOnUse" color-interpolation-filters="sRGB"><feFlood flood-opacity="0" result="BackgroundImageFix"/><feBlend in="SourceGraphic" in2="BackgroundImageFix" result="shape"/><feColorMatrix in="SourceAlpha" values="0 0 0 0 0 0 0 0 0 0 0 0 0 0 0 0 0 0 127 0" result="hardAlpha"/><feOffset dx="1" dy="1.5"/><feGaussianBlur stdDeviation=".25"/><feComposite in2="hardAlpha" operator="arithmetic" k2="-1" k3="1"/><feColorMatrix values="0 0 0 0 0.976471 0 0 0 0 0.937255 0 0 0 0 0.784314 0 0 0 1 0"/><feBlend in2="shape" result="effect1_innerShadow_3193_176703"/></filter></defs></svg>