<svg viewBox="0 0 25 24" fill="none" xmlns="http://www.w3.org/2000/svg"><path d="M22.65 7.169c-.42.58-.823 1.142-1.233 1.699-.189.256-.374.517-.59.748-.338.36-.665.404-1.113.199-.179-.082-.365-.149-.54-.236-.218-.109-.36-.07-.475.155-.211.413-.449.813-.663 1.224-.283.543-.785.737-1.361.516-.306-.117-.612-.236-.924-.333-.084-.026-.218-.012-.283.041-.848.687-1.669 1.409-2.208 2.368-.235.417-.422.893-.488 1.362-.111.79.167 1.006.841 1.2.626.18 1.181-.014 1.66-.437.093-.081.182-.168.285-.232.38-.235.715-.122.892.33.144-.14.283-.26.406-.395.528-.574 1.088-1.107 1.816-1.431.09-.04.18-.08.274-.107.396-.112.662.056.73.457.049.283.18.37.407.2.213-.16.382-.392.53-.618.172-.264.277-.573.452-.835.397-.597.985-.606 1.435-.046.283.35.413.756.44 1.195a3.975 3.975 0 0 1-.24 1.673c-.517 1.376-1.473 2.407-2.6 3.302-1.506 1.197-3.245 1.953-5.05 2.574-1.487.51-3.009.873-4.582.98-1.85.125-3.624-.157-5.234-1.117-1.035-.618-1.962-1.364-2.567-2.435-.565-1-.82-2.088-.89-3.218-.106-1.685.092-3.327.8-4.885A12.148 12.148 0 0 1 5.073 7.5c1.605-1.61 3.457-2.867 5.572-3.726 2-.812 4.086-1.285 6.253-1.274 1.938.01 3.814.4 5.584 1.206.524.239 1.023.54 1.357 1.022.172.247.325.542.367.832.063.436.05.89.014 1.33-.026.333-.239.567-.591.631-.352.064-.672.018-.907-.286-.015-.018-.035-.032-.073-.066Z" fill="#422815" stroke="#422815" stroke-linejoin="round"/><g filter="url(#a)"><path d="M21.65 6.169c-.42.58-.823 1.142-1.233 1.699-.189.256-.374.517-.59.748-.338.36-.665.404-1.113.199-.179-.082-.365-.149-.54-.236-.218-.109-.36-.07-.475.155-.211.413-.449.813-.663 1.224-.283.543-.785.737-1.361.516-.306-.117-.612-.236-.924-.333-.084-.026-.218-.012-.283.041-.848.687-1.669 1.409-2.208 2.368-.235.417-.422.893-.488 1.362-.111.79.167 1.006.841 1.2.626.18 1.181-.014 1.66-.437.093-.081.182-.168.285-.232.38-.235.716-.122.892.33.144-.14.283-.26.406-.395.528-.574 1.088-1.107 1.816-1.431.09-.04.18-.08.274-.107.396-.112.662.056.73.457.049.283.18.37.407.2.213-.16.382-.392.53-.618.172-.264.277-.573.452-.835.397-.597.985-.606 1.435-.046.283.35.413.756.44 1.195a3.975 3.975 0 0 1-.24 1.673c-.517 1.376-1.473 2.407-2.6 3.302-1.506 1.197-3.245 1.953-5.05 2.574-1.487.51-3.009.873-4.582.98-1.85.125-3.624-.157-5.234-1.117-1.035-.618-1.962-1.364-2.567-2.435-.565-1-.82-2.088-.89-3.218-.106-1.685.092-3.327.8-4.885A12.148 12.148 0 0 1 4.073 6.5C5.678 4.89 7.53 3.633 9.645 2.774c2-.812 4.086-1.285 6.253-1.274 1.938.01 3.814.4 5.584 1.206.524.239 1.023.54 1.357 1.022.172.247.325.542.367.832.063.436.05.89.014 1.33-.026.333-.239.567-.591.631-.352.064-.672.018-.907-.286-.015-.018-.035-.032-.073-.066Z" fill="url(#b)"/></g><path d="M21.65 6.169c-.42.58-.823 1.142-1.233 1.699-.189.256-.374.517-.59.748-.338.36-.665.404-1.113.199-.179-.082-.365-.149-.54-.236-.218-.109-.36-.07-.475.155-.211.413-.449.813-.663 1.224-.283.543-.785.737-1.361.516-.306-.117-.612-.236-.924-.333-.084-.026-.218-.012-.283.041-.848.687-1.669 1.409-2.208 2.368-.235.417-.422.893-.488 1.362-.111.79.167 1.006.841 1.2.626.18 1.181-.014 1.66-.437.093-.081.182-.168.285-.232.38-.235.716-.122.892.33.144-.14.283-.26.406-.395.528-.574 1.088-1.107 1.816-1.431.09-.04.18-.08.274-.107.396-.112.662.056.73.457.049.283.18.37.407.2.213-.16.382-.392.53-.618.172-.264.277-.573.452-.835.397-.597.985-.606 1.435-.046.283.35.413.756.44 1.195a3.975 3.975 0 0 1-.24 1.673c-.517 1.376-1.473 2.407-2.6 3.302-1.506 1.197-3.245 1.953-5.05 2.574-1.487.51-3.009.873-4.582.98-1.85.125-3.624-.157-5.234-1.117-1.035-.618-1.962-1.364-2.567-2.435-.565-1-.82-2.088-.89-3.218-.106-1.685.092-3.327.8-4.885A12.148 12.148 0 0 1 4.073 6.5C5.678 4.89 7.53 3.633 9.645 2.774c2-.812 4.086-1.285 6.253-1.274 1.938.01 3.814.4 5.584 1.206.524.239 1.023.54 1.357 1.022.172.247.325.542.367.832.063.436.05.89.014 1.33-.026.333-.239.567-.591.631-.352.064-.672.018-.907-.286-.015-.018-.035-.032-.073-.066Z" stroke="#422815" stroke-linejoin="round"/><g style="mix-blend-mode:overlay"><g filter="url(#c)"><path d="M21.65 6.169c-.42.58-.823 1.142-1.233 1.699-.189.256-.374.517-.59.748-.338.36-.665.404-1.113.199-.179-.082-.365-.149-.54-.236-.218-.109-.36-.07-.475.155-.211.413-.449.813-.663 1.224-.283.543-.785.737-1.361.516-.306-.117-.612-.236-.924-.333-.084-.026-.218-.012-.283.041-.848.687-1.669 1.409-2.208 2.368-.235.417-.422.893-.488 1.362-.111.79.167 1.006.841 1.2.626.18 1.181-.014 1.66-.437.093-.081.182-.168.285-.232.38-.235.716-.122.892.33.144-.14.283-.26.406-.395.528-.574 1.088-1.107 1.816-1.431.09-.04.18-.08.274-.107.396-.112.662.056.73.457.049.283.18.37.407.2.213-.16.382-.392.53-.618.172-.264.277-.573.452-.835.397-.597.985-.606 1.435-.046.283.35.413.756.44 1.195a3.975 3.975 0 0 1-.24 1.673c-.517 1.376-1.473 2.407-2.6 3.302-1.506 1.197-3.245 1.953-5.05 2.574-1.487.51-3.009.873-4.582.98-1.85.125-3.624-.157-5.234-1.117-1.035-.618-1.962-1.364-2.567-2.435-.565-1-.82-2.088-.89-3.218-.106-1.685.092-3.327.8-4.885A12.148 12.148 0 0 1 4.073 6.5C5.678 4.89 7.53 3.633 9.645 2.774c2-.812 4.086-1.285 6.253-1.274 1.938.01 3.814.4 5.584 1.206.524.239 1.023.54 1.357 1.022.172.247.325.542.367.832.063.436.05.89.014 1.33-.026.333-.239.567-.591.631-.352.064-.672.018-.907-.286-.015-.018-.035-.032-.073-.066Z" fill="url(#d)"/></g><path d="M21.65 6.169c-.42.58-.823 1.142-1.233 1.699-.189.256-.374.517-.59.748-.338.36-.665.404-1.113.199-.179-.082-.365-.149-.54-.236-.218-.109-.36-.07-.475.155-.211.413-.449.813-.663 1.224-.283.543-.785.737-1.361.516-.306-.117-.612-.236-.924-.333-.084-.026-.218-.012-.283.041-.848.687-1.669 1.409-2.208 2.368-.235.417-.422.893-.488 1.362-.111.79.167 1.006.841 1.2.626.18 1.181-.014 1.66-.437.093-.081.182-.168.285-.232.38-.235.716-.122.892.33.144-.14.283-.26.406-.395.528-.574 1.088-1.107 1.816-1.431.09-.04.18-.08.274-.107.396-.112.662.056.73.457.049.283.18.37.407.2.213-.16.382-.392.53-.618.172-.264.277-.573.452-.835.397-.597.985-.606 1.435-.046.283.35.413.756.44 1.195a3.975 3.975 0 0 1-.24 1.673c-.517 1.376-1.473 2.407-2.6 3.302-1.506 1.197-3.245 1.953-5.05 2.574-1.487.51-3.009.873-4.582.98-1.85.125-3.624-.157-5.234-1.117-1.035-.618-1.962-1.364-2.567-2.435-.565-1-.82-2.088-.89-3.218-.106-1.685.092-3.327.8-4.885A12.148 12.148 0 0 1 4.073 6.5C5.678 4.89 7.53 3.633 9.645 2.774c2-.812 4.086-1.285 6.253-1.274 1.938.01 3.814.4 5.584 1.206.524.239 1.023.54 1.357 1.022.172.247.325.542.367.832.063.436.05.89.014 1.33-.026.333-.239.567-.591.631-.352.064-.672.018-.907-.286-.015-.018-.035-.032-.073-.066Z" stroke="#422815" stroke-linejoin="round"/></g><path d="M21.65 6.169c-.42.58-.823 1.142-1.233 1.699-.189.256-.374.517-.59.748-.338.36-.665.404-1.113.199-.179-.082-.365-.149-.54-.236-.218-.109-.36-.07-.475.155-.211.413-.449.813-.663 1.224-.283.543-.785.737-1.361.516-.306-.117-.612-.236-.924-.333-.084-.026-.218-.012-.283.041-.848.687-1.669 1.409-2.208 2.368-.235.417-.422.893-.488 1.362-.111.79.167 1.006.841 1.2.626.18 1.181-.014 1.66-.437.093-.081.182-.168.285-.232.38-.235.716-.122.892.33.144-.14.283-.26.406-.395.528-.574 1.088-1.107 1.816-1.431.09-.04.18-.08.274-.107.396-.112.662.056.73.457.049.283.18.37.407.2.213-.16.382-.392.53-.618.172-.264.277-.573.452-.835.397-.597.985-.606 1.435-.046.283.35.413.756.44 1.195a3.975 3.975 0 0 1-.24 1.673c-.517 1.376-1.473 2.407-2.6 3.302-1.506 1.197-3.245 1.953-5.05 2.574-1.487.51-3.009.873-4.582.98-1.85.125-3.624-.157-5.234-1.117-1.035-.617-1.962-1.364-2.567-2.435-.565-1-.82-2.088-.89-3.218-.106-1.685.092-3.327.8-4.885A12.148 12.148 0 0 1 4.073 6.5C5.678 4.89 7.53 3.633 9.645 2.774c2-.812 4.086-1.285 6.253-1.274 1.938.01 3.814.4 5.584 1.206.524.239 1.023.54 1.357 1.022.172.247.325.542.367.832.063.436.05.89.014 1.33-.026.333-.239.567-.591.631-.352.064-.672.018-.907-.286-.015-.018-.035-.032-.073-.066Z" stroke="#422815" stroke-linejoin="round"/><defs><linearGradient id="b" x1="12" y1="21.75" x2="12" y2="1.5" gradientUnits="userSpaceOnUse"><stop stop-color="#A47000"/><stop offset=".4" stop-color="#E8940E"/><stop offset=".6" stop-color="#F4C016"/><stop offset=".8" stop-color="#FEE923"/><stop offset="1" stop-color="#FFF17F"/></linearGradient><linearGradient id="d" x1="12" y1="1.5" x2="12" y2="21.75" gradientUnits="userSpaceOnUse"><stop stop-color="#9A3F19"/><stop offset="1" stop-color="#FF5620"/></linearGradient><filter id="a" x=".25" y="1" width="24" height="21.75" filterUnits="userSpaceOnUse" color-interpolation-filters="sRGB"><feFlood flood-opacity="0" result="BackgroundImageFix"/><feBlend in="SourceGraphic" in2="BackgroundImageFix" result="shape"/><feColorMatrix in="SourceAlpha" values="0 0 0 0 0 0 0 0 0 0 0 0 0 0 0 0 0 0 127 0" result="hardAlpha"/><feOffset dx="1" dy="1.5"/><feGaussianBlur stdDeviation=".25"/><feComposite in2="hardAlpha" operator="arithmetic" k2="-1" k3="1"/><feColorMatrix values="0 0 0 0 0.976471 0 0 0 0 0.937255 0 0 0 0 0.784314 0 0 0 1 0"/><feBlend in2="shape" result="effect1_innerShadow_3193_176733"/></filter><filter id="c" x=".25" y="1" width="24" height="21.75" filterUnits="userSpaceOnUse" color-interpolation-filters="sRGB"><feFlood flood-opacity="0" result="BackgroundImageFix"/><feBlend in="SourceGraphic" in2="BackgroundImageFix" result="shape"/><feColorMatrix in="SourceAlpha" values="0 0 0 0 0 0 0 0 0 0 0 0 0 0 0 0 0 0 127 0" result="hardAlpha"/><feOffset dx="1" dy="1.5"/><feGaussianBlur stdDeviation=".25"/><feComposite in2="hardAlpha" operator="arithmetic" k2="-1" k3="1"/><feColorMatrix values="0 0 0 0 0.976471 0 0 0 0 0.937255 0 0 0 0 0.784314 0 0 0 1 0"/><feBlend in2="shape" result="effect1_innerShadow_3193_176733"/></filter></defs></svg>