<svg viewBox="0 0 26 24" fill="none" xmlns="http://www.w3.org/2000/svg"><path d="M21.088 8.087a9.46 9.46 0 0 1 2.146.407c.67.355 1.333 1.065 1.43 1.826.121.973-.243 2.35-.697 4.063l-.208.79c-1.262 4.98-1.688 5.733-3.231 6.557-.912.491-3.606.748-7.264.748-3.658 0-6.352-.257-7.264-.748-.684-.365-1.426-.98-1.837-1.643-.424-.684-.764-1.732-1.375-3.614a302.34 302.34 0 0 0-.591-1.808c-.783-2.442-1.52-5.364 0-6.17a9.525 9.525 0 0 1 2.53-.445c.298-.69.69-1.513 1.081-2.238A18.116 18.116 0 0 1 8 2.452a1.718 1.718 0 0 1 2.027-.175c.472.226 1.097.787 1.341 1.246.172.322.236.69.184 1.05a18.163 18.163 0 0 1-1.315 3.181c.88-.025 1.726-.025 2.484-.025 1 0 2.168.017 3.337.058v-.04a18.16 18.16 0 0 1-1.59-3.682 1.712 1.712 0 0 1 .965-1.77 1.722 1.722 0 0 1 1.043-.246c.653.057 1.09.52 1.557.929a18.115 18.115 0 0 1 2.19 3.36c.303.56.606 1.178.865 1.749Z" fill="#422815" stroke="#422815" stroke-miterlimit="10"/><g filter="url(#a)"><path d="M23.234 8.494a9.466 9.466 0 0 0-2.5-.426c-.299-.69-.69-1.514-1.082-2.238a18.11 18.11 0 0 0-2.191-3.36 1.718 1.718 0 0 0-2.028-.176 1.712 1.712 0 0 0-.964 1.77 18.16 18.16 0 0 0 1.59 3.682v.041a97.698 97.698 0 0 0-3.338-.058c-.999 0-2.15 0-3.33.058a.259.259 0 0 1 0-.04 18.162 18.162 0 0 0 1.589-3.682 1.712 1.712 0 0 0-.953-1.788A1.718 1.718 0 0 0 8 2.452a18.116 18.116 0 0 0-2.192 3.36 29.869 29.869 0 0 0-1.08 2.238 9.545 9.545 0 0 0-2.531.444c-1.52.807-.783 3.729 0 6.171 1.619 4.886 1.689 5.733 3.232 6.557.911.49 3.605.748 7.263.748s6.352-.257 7.264-.748c1.543-.824 1.97-1.578 3.232-6.557.83-3.19 1.566-5.364.046-6.17Z" fill="url(#b)"/></g><path d="M23.234 8.494a9.466 9.466 0 0 0-2.5-.426c-.299-.69-.69-1.514-1.082-2.238a18.11 18.11 0 0 0-2.191-3.36 1.718 1.718 0 0 0-2.028-.176 1.712 1.712 0 0 0-.964 1.77 18.16 18.16 0 0 0 1.59 3.682v.041a97.698 97.698 0 0 0-3.338-.058c-.999 0-2.15 0-3.33.058a.259.259 0 0 1 0-.04 18.162 18.162 0 0 0 1.589-3.682 1.712 1.712 0 0 0-.953-1.788A1.718 1.718 0 0 0 8 2.452a18.116 18.116 0 0 0-2.192 3.36 29.869 29.869 0 0 0-1.08 2.238 9.545 9.545 0 0 0-2.531.444c-1.52.807-.783 3.729 0 6.171 1.619 4.886 1.689 5.733 3.232 6.557.911.49 3.605.748 7.263.748s6.352-.257 7.264-.748c1.543-.824 1.97-1.578 3.232-6.557.83-3.19 1.566-5.364.046-6.17Z" stroke="#422815" stroke-miterlimit="10"/><g style="mix-blend-mode:overlay"><g filter="url(#c)"><path d="M23.234 8.494a9.466 9.466 0 0 0-2.5-.426c-.299-.69-.69-1.514-1.082-2.238a18.11 18.11 0 0 0-2.191-3.36 1.718 1.718 0 0 0-2.028-.176 1.712 1.712 0 0 0-.964 1.77 18.16 18.16 0 0 0 1.59 3.682v.041a97.698 97.698 0 0 0-3.338-.058c-.999 0-2.15 0-3.33.058a.259.259 0 0 1 0-.04 18.162 18.162 0 0 0 1.589-3.682 1.712 1.712 0 0 0-.953-1.788A1.718 1.718 0 0 0 8 2.452a18.116 18.116 0 0 0-2.192 3.36 29.869 29.869 0 0 0-1.08 2.238 9.545 9.545 0 0 0-2.531.444c-1.52.807-.783 3.729 0 6.171 1.619 4.886 1.689 5.733 3.232 6.557.911.49 3.605.748 7.263.748s6.352-.257 7.264-.748c1.543-.824 1.97-1.578 3.232-6.557.83-3.19 1.566-5.364.046-6.17Z" fill="url(#d)"/></g><path d="M23.234 8.494a9.466 9.466 0 0 0-2.5-.426c-.299-.69-.69-1.514-1.082-2.238a18.11 18.11 0 0 0-2.191-3.36 1.718 1.718 0 0 0-2.028-.176 1.712 1.712 0 0 0-.964 1.77 18.16 18.16 0 0 0 1.59 3.682v.041a97.698 97.698 0 0 0-3.338-.058c-.999 0-2.15 0-3.33.058a.259.259 0 0 1 0-.04 18.162 18.162 0 0 0 1.589-3.682 1.712 1.712 0 0 0-.953-1.788A1.718 1.718 0 0 0 8 2.452a18.116 18.116 0 0 0-2.192 3.36 29.869 29.869 0 0 0-1.08 2.238 9.545 9.545 0 0 0-2.531.444c-1.52.807-.783 3.729 0 6.171 1.619 4.886 1.689 5.733 3.232 6.557.911.49 3.605.748 7.263.748s6.352-.257 7.264-.748c1.543-.824 1.97-1.578 3.232-6.557.83-3.19 1.566-5.364.046-6.17Z" stroke="#422815" stroke-miterlimit="10"/></g><path d="M23.234 8.494a9.466 9.466 0 0 0-2.5-.426c-.299-.69-.69-1.514-1.082-2.238a18.11 18.11 0 0 0-2.191-3.36 1.718 1.718 0 0 0-2.028-.176 1.712 1.712 0 0 0-.964 1.77 18.16 18.16 0 0 0 1.59 3.682v.041a97.698 97.698 0 0 0-3.338-.058c-.999 0-2.15 0-3.33.058a.259.259 0 0 1 0-.04 18.162 18.162 0 0 0 1.589-3.682 1.712 1.712 0 0 0-.953-1.788A1.718 1.718 0 0 0 8 2.452a18.116 18.116 0 0 0-2.192 3.36 29.869 29.869 0 0 0-1.08 2.238 9.545 9.545 0 0 0-2.531.444c-1.52.807-.783 3.729 0 6.171 1.619 4.886 1.689 5.733 3.232 6.557.911.49 3.605.748 7.263.748s6.352-.257 7.264-.748c1.543-.824 1.97-1.578 3.232-6.557.83-3.19 1.566-5.364.046-6.17Z" stroke="#422815" stroke-miterlimit="10"/><path d="M6.984 12.035c.163 1.917.434 3.823.813 5.71m10.603-5.71a50.097 50.097 0 0 1-.818 5.71m-4.891-5.71v5.71" stroke="#422815" stroke-linecap="round" stroke-linejoin="round"/><defs><linearGradient id="b" x1="12.714" y1="21.97" x2="12.714" y2="2.025" gradientUnits="userSpaceOnUse"><stop stop-color="#A47000"/><stop offset=".4" stop-color="#E8940E"/><stop offset=".6" stop-color="#F4C016"/><stop offset=".8" stop-color="#FEE923"/><stop offset="1" stop-color="#FFF17F"/></linearGradient><linearGradient id="d" x1="12.714" y1="2.025" x2="12.714" y2="21.97" gradientUnits="userSpaceOnUse"><stop stop-color="#9A3F19"/><stop offset="1" stop-color="#FF5620"/></linearGradient><filter id="a" x=".813" y="1.525" width="24.302" height="21.444" filterUnits="userSpaceOnUse" color-interpolation-filters="sRGB"><feFlood flood-opacity="0" result="BackgroundImageFix"/><feBlend in="SourceGraphic" in2="BackgroundImageFix" result="shape"/><feColorMatrix in="SourceAlpha" values="0 0 0 0 0 0 0 0 0 0 0 0 0 0 0 0 0 0 127 0" result="hardAlpha"/><feOffset dx="1" dy="1.5"/><feGaussianBlur stdDeviation=".25"/><feComposite in2="hardAlpha" operator="arithmetic" k2="-1" k3="1"/><feColorMatrix values="0 0 0 0 0.976471 0 0 0 0 0.937255 0 0 0 0 0.784314 0 0 0 1 0"/><feBlend in2="shape" result="effect1_innerShadow_3193_176736"/></filter><filter id="c" x=".813" y="1.525" width="24.302" height="21.444" filterUnits="userSpaceOnUse" color-interpolation-filters="sRGB"><feFlood flood-opacity="0" result="BackgroundImageFix"/><feBlend in="SourceGraphic" in2="BackgroundImageFix" result="shape"/><feColorMatrix in="SourceAlpha" values="0 0 0 0 0 0 0 0 0 0 0 0 0 0 0 0 0 0 127 0" result="hardAlpha"/><feOffset dx="1" dy="1.5"/><feGaussianBlur stdDeviation=".25"/><feComposite in2="hardAlpha" operator="arithmetic" k2="-1" k3="1"/><feColorMatrix values="0 0 0 0 0.976471 0 0 0 0 0.937255 0 0 0 0 0.784314 0 0 0 1 0"/><feBlend in2="shape" result="effect1_innerShadow_3193_176736"/></filter></defs></svg>