<svg viewBox="0 0 26 24" fill="none" xmlns="http://www.w3.org/2000/svg"><path d="M20.78 3.32c-.845-.578-4.906-1.058-8.198-1.058-3.292 0-7.354.48-8.199 1.058-1.365.874-3.072 3.044-3.072 5.092 0 .248-.003.486-.006.717-.018 1.668-.033 2.904 1.03 4.41.45.638 4.541 5.244 7.783 7.258 1.206.854 2.345 1.434 3.206 1.434 3.072 0 9.662-7.377 10.247-8.199 1.063-1.524 1.049-2.746 1.03-4.41a53.921 53.921 0 0 1-.006-.715c0-1.71-1.188-3.503-2.375-4.558-.44-.39-.945-.712-1.44-1.029Z" fill="#422815" stroke="#422815" stroke-miterlimit="10"/><g filter="url(#a)"><path d="M22.828 13.538c1.21-1.736 1.024-3.078 1.024-5.126 0-2.048-1.707-4.218-3.072-5.092-.845-.578-4.906-1.058-8.199-1.058-3.292 0-7.353.48-8.198 1.058-1.366.874-3.072 3.044-3.072 5.092 0 2.048-.186 3.414 1.024 5.126.579.822 7.174 8.198 10.246 8.198s9.663-7.377 10.247-8.198Z" fill="url(#b)"/></g><path d="M22.828 13.538c1.21-1.736 1.024-3.078 1.024-5.126 0-2.048-1.707-4.218-3.072-5.092-.845-.578-4.906-1.058-8.199-1.058-3.292 0-7.353.48-8.198 1.058-1.366.874-3.072 3.044-3.072 5.092 0 2.048-.186 3.414 1.024 5.126.579.822 7.174 8.198 10.246 8.198s9.663-7.377 10.247-8.198Z" stroke="#422815" stroke-miterlimit="10"/><g style="mix-blend-mode:overlay"><g filter="url(#c)"><path d="M22.828 13.538c1.21-1.736 1.024-3.078 1.024-5.126 0-2.048-1.707-4.218-3.072-5.092-.845-.578-4.906-1.058-8.199-1.058-3.292 0-7.353.48-8.198 1.058-1.366.874-3.072 3.044-3.072 5.092 0 2.048-.186 3.414 1.024 5.126.579.822 7.174 8.198 10.246 8.198s9.663-7.377 10.247-8.198Z" fill="url(#d)"/></g><path d="M22.828 13.538c1.21-1.736 1.024-3.078 1.024-5.126 0-2.048-1.707-4.218-3.072-5.092-.845-.578-4.906-1.058-8.199-1.058-3.292 0-7.353.48-8.198 1.058-1.366.874-3.072 3.044-3.072 5.092 0 2.048-.186 3.414 1.024 5.126.579.822 7.174 8.198 10.246 8.198s9.663-7.377 10.247-8.198Z" stroke="#422815" stroke-miterlimit="10"/></g><path d="M22.828 13.538c1.21-1.736 1.024-3.078 1.024-5.126 0-2.048-1.707-4.218-3.072-5.092-.845-.578-4.906-1.058-8.199-1.058-3.292 0-7.353.48-8.198 1.058-1.366.874-3.072 3.044-3.072 5.092 0 2.048-.186 3.414 1.024 5.126.579.822 7.174 8.198 10.246 8.198s9.663-7.377 10.247-8.198Z" stroke="#422815" stroke-miterlimit="10"/><path d="M4.385 11.484c4.102 1.03 12.294 1.03 16.397 0M7.572 6.746c1.88.405 8.141.405 10.021 0" stroke="#422815" stroke-miterlimit="10" stroke-linecap="round"/><path d="M9.51 7.371c-.45 1.573-1.024 4.918-1.024 4.918a41.664 41.664 0 0 0 2.048 5.328m5.121-10.246c.451 1.573 1.024 4.918 1.024 4.918a42.056 42.056 0 0 1-2.048 5.328" stroke="#422815" stroke-miterlimit="10" stroke-linecap="round"/><defs><linearGradient id="b" x1="12.582" y1="21.736" x2="12.582" y2="2.262" gradientUnits="userSpaceOnUse"><stop stop-color="#A47000"/><stop offset=".4" stop-color="#E8940E"/><stop offset=".6" stop-color="#F4C016"/><stop offset=".8" stop-color="#FEE923"/><stop offset="1" stop-color="#FFF17F"/></linearGradient><linearGradient id="d" x1="12.582" y1="2.262" x2="12.582" y2="21.736" gradientUnits="userSpaceOnUse"><stop stop-color="#9A3F19"/><stop offset="1" stop-color="#FF5620"/></linearGradient><filter id="a" x=".8" y="1.762" width="24.064" height="20.975" filterUnits="userSpaceOnUse" color-interpolation-filters="sRGB"><feFlood flood-opacity="0" result="BackgroundImageFix"/><feBlend in="SourceGraphic" in2="BackgroundImageFix" result="shape"/><feColorMatrix in="SourceAlpha" values="0 0 0 0 0 0 0 0 0 0 0 0 0 0 0 0 0 0 127 0" result="hardAlpha"/><feOffset dx="1" dy="1.5"/><feGaussianBlur stdDeviation=".25"/><feComposite in2="hardAlpha" operator="arithmetic" k2="-1" k3="1"/><feColorMatrix values="0 0 0 0 0.976471 0 0 0 0 0.937255 0 0 0 0 0.784314 0 0 0 1 0"/><feBlend in2="shape" result="effect1_innerShadow_3193_176739"/></filter><filter id="c" x=".8" y="1.762" width="24.064" height="20.975" filterUnits="userSpaceOnUse" color-interpolation-filters="sRGB"><feFlood flood-opacity="0" result="BackgroundImageFix"/><feBlend in="SourceGraphic" in2="BackgroundImageFix" result="shape"/><feColorMatrix in="SourceAlpha" values="0 0 0 0 0 0 0 0 0 0 0 0 0 0 0 0 0 0 127 0" result="hardAlpha"/><feOffset dx="1" dy="1.5"/><feGaussianBlur stdDeviation=".25"/><feComposite in2="hardAlpha" operator="arithmetic" k2="-1" k3="1"/><feColorMatrix values="0 0 0 0 0.976471 0 0 0 0 0.937255 0 0 0 0 0.784314 0 0 0 1 0"/><feBlend in2="shape" result="effect1_innerShadow_3193_176739"/></filter></defs></svg>