<svg viewBox="0 0 26 24" fill="none" xmlns="http://www.w3.org/2000/svg"><path d="M13.49 21.707c2.575 0 6-.532 6.664-1.567.67-.572 1.344-3.37 1.344-5.72v-.807c1.013.292 2.116-.423 2.643-1.195.526-.772.79-2.18.029-3.015-.315-.526-2.609-2.402-4.628-3.78a47.185 47.185 0 0 0-3.43-2.131c-1.286-.77-2.418-1.362-2.805-1.415a3.083 3.083 0 0 0-1.716 0C11 2.18 8.45 3.639 6.403 5.023 4.355 6.407 2.09 8.277 1.775 8.803c-.772.836-.492 2.22.063 3.032.526.77 1.732 1.539 2.643 1.789v.213c-.035 2.334.64 5.131 1.31 5.703 1.329 2.074 5.643 2.167 7.7 2.167Z" fill="#422815" stroke="#422815" stroke-miterlimit="10"/><g filter="url(#a)"><path d="M23.133 8.803c-.314-.526-2.608-2.402-4.627-3.78-2.019-1.379-4.576-2.86-5.2-2.946a3.083 3.083 0 0 0-1.715 0C11 2.18 8.45 3.639 6.403 5.023 4.355 6.407 2.09 8.277 1.775 8.803c-.772.836-.492 2.22.063 3.032.555.812 1.63 1.487 2.643 1.195v.807c-.035 2.334.64 5.131 1.31 5.703.663 1.035 4.09 1.567 6.663 1.567 2.574 0 6-.532 6.664-1.567.67-.572 1.344-3.37 1.344-5.72v-.807c1.012.292 2.116-.423 2.643-1.195.526-.772.79-2.18.028-3.015Z" fill="url(#b)"/></g><path d="M23.133 8.803c-.314-.526-2.608-2.402-4.627-3.78-2.019-1.379-4.576-2.86-5.2-2.946a3.083 3.083 0 0 0-1.715 0C11 2.18 8.45 3.639 6.403 5.023 4.355 6.407 2.09 8.277 1.775 8.803c-.772.836-.492 2.22.063 3.032.555.812 1.63 1.487 2.643 1.195v.807c-.035 2.334.64 5.131 1.31 5.703.663 1.035 4.09 1.567 6.663 1.567 2.574 0 6-.532 6.664-1.567.67-.572 1.344-3.37 1.344-5.72v-.807c1.012.292 2.116-.423 2.643-1.195.526-.772.79-2.18.028-3.015Z" stroke="#422815" stroke-miterlimit="10"/><g style="mix-blend-mode:overlay"><g filter="url(#c)"><path d="M23.133 8.803c-.314-.526-2.608-2.402-4.627-3.78-2.019-1.379-4.576-2.86-5.2-2.946a3.083 3.083 0 0 0-1.715 0C11 2.18 8.45 3.639 6.403 5.023 4.355 6.407 2.09 8.277 1.775 8.803c-.772.836-.492 2.22.063 3.032.555.812 1.63 1.487 2.643 1.195v.807c-.035 2.334.64 5.131 1.31 5.703.663 1.035 4.09 1.567 6.663 1.567 2.574 0 6-.532 6.664-1.567.67-.572 1.344-3.37 1.344-5.72v-.807c1.012.292 2.116-.423 2.643-1.195.526-.772.79-2.18.028-3.015Z" fill="url(#d)"/></g><path d="M23.133 8.803c-.314-.526-2.608-2.402-4.627-3.78-2.019-1.379-4.576-2.86-5.2-2.946a3.083 3.083 0 0 0-1.715 0C11 2.18 8.45 3.639 6.403 5.023 4.355 6.407 2.09 8.277 1.775 8.803c-.772.836-.492 2.22.063 3.032.555.812 1.63 1.487 2.643 1.195v.807c-.035 2.334.64 5.131 1.31 5.703.663 1.035 4.09 1.567 6.663 1.567 2.574 0 6-.532 6.664-1.567.67-.572 1.344-3.37 1.344-5.72v-.807c1.012.292 2.116-.423 2.643-1.195.526-.772.79-2.18.028-3.015Z" stroke="#422815" stroke-miterlimit="10"/></g><path d="M23.133 8.803c-.314-.526-2.608-2.402-4.627-3.78-2.019-1.379-4.576-2.86-5.2-2.946a3.083 3.083 0 0 0-1.715 0C11 2.18 8.45 3.639 6.403 5.023 4.355 6.407 2.09 8.277 1.775 8.803c-.772.836-.492 2.22.063 3.032.555.812 1.63 1.487 2.643 1.195v.807c-.035 2.334.64 5.131 1.31 5.703.663 1.035 4.09 1.567 6.663 1.567 2.574 0 6-.532 6.664-1.567.67-.572 1.344-3.37 1.344-5.72v-.807c1.012.292 2.116-.423 2.643-1.195.526-.772.79-2.18.028-3.015Z" stroke="#422815" stroke-miterlimit="10"/><path d="M12.454 13.447c-3.545 0-2.14 4.965-1.744 5.394.194.423.995.423 1.744.423.75 0 1.55 0 1.745-.423.395-.446 1.801-5.394-1.745-5.394Z" fill="#F9EFC8" stroke="#422815" stroke-miterlimit="10"/><path d="M7.07 11.4a23.979 23.979 0 0 0 4.97-3.037.669.669 0 0 1 .825 0 23.98 23.98 0 0 0 4.97 3.037" stroke="#422815" stroke-miterlimit="10" stroke-linecap="round"/><defs><linearGradient id="b" x1="12.454" y1="21.107" x2="12.454" y2="1.955" gradientUnits="userSpaceOnUse"><stop stop-color="#A47000"/><stop offset=".4" stop-color="#E8940E"/><stop offset=".6" stop-color="#F4C016"/><stop offset=".8" stop-color="#FEE923"/><stop offset="1" stop-color="#FFF17F"/></linearGradient><linearGradient id="d" x1="12.454" y1="1.955" x2="12.454" y2="21.107" gradientUnits="userSpaceOnUse"><stop stop-color="#9A3F19"/><stop offset="1" stop-color="#FF5620"/></linearGradient><filter id="a" x=".801" y="1.455" width="23.807" height="20.652" filterUnits="userSpaceOnUse" color-interpolation-filters="sRGB"><feFlood flood-opacity="0" result="BackgroundImageFix"/><feBlend in="SourceGraphic" in2="BackgroundImageFix" result="shape"/><feColorMatrix in="SourceAlpha" values="0 0 0 0 0 0 0 0 0 0 0 0 0 0 0 0 0 0 127 0" result="hardAlpha"/><feOffset dx="1" dy="1.5"/><feGaussianBlur stdDeviation=".25"/><feComposite in2="hardAlpha" operator="arithmetic" k2="-1" k3="1"/><feColorMatrix values="0 0 0 0 0.976471 0 0 0 0 0.937255 0 0 0 0 0.784314 0 0 0 1 0"/><feBlend in2="shape" result="effect1_innerShadow_3193_176706"/></filter><filter id="c" x=".801" y="1.455" width="23.807" height="20.652" filterUnits="userSpaceOnUse" color-interpolation-filters="sRGB"><feFlood flood-opacity="0" result="BackgroundImageFix"/><feBlend in="SourceGraphic" in2="BackgroundImageFix" result="shape"/><feColorMatrix in="SourceAlpha" values="0 0 0 0 0 0 0 0 0 0 0 0 0 0 0 0 0 0 127 0" result="hardAlpha"/><feOffset dx="1" dy="1.5"/><feGaussianBlur stdDeviation=".25"/><feComposite in2="hardAlpha" operator="arithmetic" k2="-1" k3="1"/><feColorMatrix values="0 0 0 0 0.976471 0 0 0 0 0.937255 0 0 0 0 0.784314 0 0 0 1 0"/><feBlend in2="shape" result="effect1_innerShadow_3193_176706"/></filter></defs></svg>