<svg width="24" height="24" viewBox="0 0 24 24" fill="none" xmlns="http://www.w3.org/2000/svg">
<g clip-path="url(#clip0_74752_9580)">
<mask id="mask0_74752_9580" style="mask-type:luminance" maskUnits="userSpaceOnUse" x="0" y="0" width="24" height="24">
<path d="M24 0H0V24H24V0Z" fill="white"/>
</mask>
<g mask="url(#mask0_74752_9580)">
<mask id="mask1_74752_9580" style="mask-type:luminance" maskUnits="userSpaceOnUse" x="0" y="0" width="24" height="24">
<path d="M24 0H0V24H24V0Z" fill="white"/>
</mask>
<g mask="url(#mask1_74752_9580)">
<path d="M5.08802 21.6074V21.8324C5.08531 22.0549 5.12507 22.2756 5.20494 22.4817C5.2848 22.6877 5.40316 22.8749 5.55303 23.0322C5.70292 23.1895 5.88128 23.3137 6.07762 23.3975C6.27396 23.4814 6.4843 23.5231 6.69624 23.5203H17.1362C17.5627 23.5203 17.9718 23.3424 18.2734 23.0259C18.5749 22.7094 18.7444 22.2801 18.7444 21.8324V14.8511C18.7444 14.5631 18.9664 14.3296 19.2403 14.3296H21.0819C21.634 14.3296 22.0815 13.863 22.0815 13.2873V11.1069C22.0815 10.8858 22.2178 10.6946 22.3996 10.5834C22.6305 10.4422 22.8311 10.2498 22.9866 10.0182C23.2099 9.68554 23.3292 9.28828 23.3279 8.88136C23.328 8.62104 23.2783 8.36335 23.1815 8.12363C23.0848 7.88391 22.9432 7.66705 22.7651 7.48595C22.5869 7.30486 22.3758 7.16322 22.1444 7.06949C21.913 6.97574 21.666 6.93181 21.4181 6.9403C20.9446 6.96103 20.4958 7.16775 20.1607 7.51946C19.8255 7.87117 19.6286 8.3422 19.6089 8.83916C19.6036 9.25508 19.723 9.66222 19.9502 10.003C20.1098 10.2422 20.3168 10.4401 20.5553 10.5843C20.7382 10.6949 20.8753 10.8866 20.8753 11.1085V12.2808C20.8753 12.5688 20.6533 12.8022 20.3794 12.8022H19.2403C18.9664 12.8022 18.7444 12.5688 18.7444 12.2808V4.08827C18.7444 3.64061 18.5749 3.21129 18.2734 2.89476C17.9718 2.57822 17.5627 2.40039 17.1362 2.40039H16.9874V21.6074H5.08802Z" fill="#422815" stroke="#422815"/>
<path d="M22.9947 7.94506C22.9948 7.61953 22.9293 7.29731 22.8022 6.99758C22.675 6.69765 22.4887 6.42637 22.2543 6.19988C22.0201 5.97339 21.7426 5.79629 21.4384 5.67911C21.1343 5.56191 20.8096 5.507 20.4838 5.51761L20.4795 5.51777C19.8598 5.54357 19.2723 5.80087 18.8335 6.2389C18.4878 6.58394 18.2543 7.02126 18.158 7.49406V3.13495C18.158 2.55809 17.9285 2.00502 17.5201 1.59739C17.1117 1.18977 16.5581 0.960938 15.981 0.960938H4.96431C4.38719 0.960938 3.83354 1.18977 3.42519 1.59739C3.01682 2.00502 2.78725 2.55809 2.78725 3.13495V20.9407C2.78402 21.227 2.83803 21.5112 2.94611 21.7763C3.0546 22.0425 3.21535 22.2844 3.41885 22.4875C3.62234 22.6906 3.86447 22.851 4.13093 22.9591C4.3964 23.067 4.6807 23.1208 4.9672 23.1176H15.981C16.5581 23.1176 17.1117 22.8888 17.5201 22.4812C17.9285 22.0735 18.158 21.5205 18.158 20.9436V13.9369C18.158 13.913 18.1774 13.8936 18.2014 13.8936H20.1446C20.9886 13.8936 21.6795 13.2141 21.6795 12.3675V10.1791C21.6795 10.175 21.6802 10.163 21.6945 10.1418C21.7097 10.119 21.7371 10.0915 21.7764 10.0686C22.0794 9.89249 22.3426 9.65239 22.5467 9.36323C22.8396 8.94833 22.9962 8.45277 22.9947 7.94506ZM22.9947 7.94506C22.9947 7.94465 22.9947 7.94424 22.9947 7.94382L22.5147 7.94548L22.9947 7.94506C22.9947 7.94528 22.9947 7.94483 22.9947 7.94506ZM18.158 11.3573V8.41401C18.2248 8.74738 18.3601 9.06528 18.5575 9.34677C18.7665 9.64471 19.0375 9.89124 19.3498 10.0708C19.389 10.0933 19.4164 10.1206 19.4316 10.1433C19.4458 10.1645 19.4467 10.1765 19.4467 10.1807V11.3573C19.4467 11.3812 19.4272 11.4006 19.4033 11.4006H18.2014C18.1775 11.4006 18.158 11.3812 18.158 11.3573ZM9.48183 12.0109C9.48183 11.987 9.50122 11.9676 9.52515 11.9676H11.1726C11.1966 11.9676 11.216 11.987 11.216 12.0109V14.4454C11.216 14.4693 11.1966 14.4887 11.1726 14.4887H9.52515C9.50122 14.4887 9.48183 14.4693 9.48183 14.4454V12.0109ZM5.45128 12.0109C5.45128 11.987 5.47069 11.9676 5.49461 11.9676H7.14206C7.16599 11.9676 7.18538 11.987 7.18538 12.0109V14.4454C7.18538 14.4693 7.16599 14.4887 7.14206 14.4887H5.49461C5.47069 14.4887 5.45128 14.4693 5.45128 14.4454V12.0109ZM15.2464 8.99932C15.2464 9.02326 15.227 9.04265 15.2031 9.04265H5.72098C5.69705 9.04265 5.67765 9.02326 5.67765 8.99932V4.00067C5.67765 3.97674 5.69705 3.95735 5.72098 3.95735H15.2031C15.227 3.95735 15.2464 3.97674 15.2464 4.00067V8.99932ZM15.2464 14.4454C15.2464 14.4693 15.227 14.4887 15.2031 14.4887H13.5557C13.5318 14.4887 13.5124 14.4693 13.5124 14.4454V12.0109C13.5124 11.987 13.5318 11.9676 13.5557 11.9676H15.2031C15.227 11.9676 15.2464 11.987 15.2464 12.0109V14.4454Z" fill="#422815"/>
<path d="M22.9947 7.94506C22.9948 7.61953 22.9293 7.29731 22.8022 6.99758C22.675 6.69765 22.4887 6.42637 22.2543 6.19988C22.0201 5.97339 21.7426 5.79629 21.4384 5.67911C21.1343 5.56191 20.8096 5.507 20.4838 5.51761L20.4795 5.51777C19.8598 5.54357 19.2723 5.80087 18.8335 6.2389C18.4878 6.58394 18.2543 7.02126 18.158 7.49406V3.13495C18.158 2.55809 17.9285 2.00502 17.5201 1.59739C17.1117 1.18977 16.5581 0.960938 15.981 0.960938H4.96431C4.38719 0.960938 3.83354 1.18977 3.42519 1.59739C3.01682 2.00502 2.78725 2.55809 2.78725 3.13495V20.9407C2.78402 21.227 2.83803 21.5112 2.94611 21.7763C3.0546 22.0425 3.21535 22.2844 3.41885 22.4875C3.62234 22.6906 3.86447 22.851 4.13093 22.9591M22.9947 7.94506C22.9962 8.45277 22.8396 8.94833 22.5467 9.36323C22.3426 9.65239 22.0794 9.89249 21.7764 10.0686C21.7371 10.0915 21.7097 10.119 21.6945 10.1418C21.6802 10.163 21.6795 10.175 21.6795 10.1791V12.3675C21.6795 13.2141 20.9886 13.8936 20.1446 13.8936H18.2014C18.1774 13.8936 18.158 13.913 18.158 13.9369V20.9436C18.158 21.5205 17.9285 22.0735 17.5201 22.4812C17.1117 22.8888 16.5581 23.1176 15.981 23.1176H4.9672C4.6807 23.1208 4.3964 23.067 4.13093 22.9591M22.9947 7.94506C22.9947 7.94465 22.9947 7.94424 22.9947 7.94382L22.5147 7.94548L22.9947 7.94506ZM22.9947 7.94506C22.9947 7.94483 22.9947 7.94528 22.9947 7.94506ZM4.13093 22.9591L4.31151 22.5145M18.158 11.3573V8.41401C18.2248 8.74738 18.3601 9.06528 18.5575 9.34677C18.7665 9.64471 19.0375 9.89124 19.3498 10.0708C19.389 10.0933 19.4164 10.1206 19.4316 10.1433C19.4458 10.1645 19.4467 10.1765 19.4467 10.1807V11.3573C19.4467 11.3812 19.4272 11.4006 19.4033 11.4006H18.2014C18.1775 11.4006 18.158 11.3812 18.158 11.3573ZM9.48183 12.0109C9.48183 11.987 9.50122 11.9676 9.52515 11.9676H11.1726C11.1966 11.9676 11.216 11.987 11.216 12.0109V14.4454C11.216 14.4693 11.1966 14.4887 11.1726 14.4887H9.52515C9.50122 14.4887 9.48183 14.4693 9.48183 14.4454V12.0109ZM5.45128 12.0109C5.45128 11.987 5.47069 11.9676 5.49461 11.9676H7.14206C7.16599 11.9676 7.18538 11.987 7.18538 12.0109V14.4454C7.18538 14.4693 7.16599 14.4887 7.14206 14.4887H5.49461C5.47069 14.4887 5.45128 14.4693 5.45128 14.4454V12.0109ZM15.2464 8.99932C15.2464 9.02326 15.227 9.04265 15.2031 9.04265H5.72098C5.69705 9.04265 5.67765 9.02326 5.67765 8.99932V4.00067C5.67765 3.97674 5.69705 3.95735 5.72098 3.95735H15.2031C15.227 3.95735 15.2464 3.97674 15.2464 4.00067V8.99932ZM15.2464 14.4454C15.2464 14.4693 15.227 14.4887 15.2031 14.4887H13.5557C13.5318 14.4887 13.5124 14.4693 13.5124 14.4454V12.0109C13.5124 11.987 13.5318 11.9676 13.5557 11.9676H15.2031C15.227 11.9676 15.2464 11.987 15.2464 12.0109V14.4454Z" stroke="#422815"/>
<g filter="url(#filter0_i_74752_9580)">
<path fill-rule="evenodd" clip-rule="evenodd" d="M19.1711 6.57713C19.5247 6.22414 19.9983 6.01668 20.498 5.99587C20.7596 5.98735 21.0202 6.03144 21.2643 6.12553C21.5086 6.21961 21.7313 6.36176 21.9192 6.5435C22.1073 6.72526 22.2568 6.94291 22.3588 7.18351C22.4609 7.4241 22.5134 7.68273 22.5132 7.94399C22.5146 8.35238 22.3888 8.7511 22.1531 9.08496C21.989 9.31747 21.7774 9.51051 21.5336 9.65225C21.3418 9.76381 21.198 9.9558 21.198 10.1777V12.366C21.198 12.9437 20.7257 13.4121 20.1431 13.4121H18.1999C17.9109 13.4121 17.6765 13.6464 17.6765 13.9354V20.9421C17.6765 21.3914 17.4978 21.8223 17.1795 22.1399C16.8612 22.4576 16.4296 22.6362 15.9795 22.6362H4.96282C4.73917 22.6389 4.51722 22.5971 4.31003 22.513C4.10284 22.4288 3.91463 22.3042 3.75647 22.1463C3.59831 21.9884 3.47341 21.8006 3.38913 21.5937C3.30486 21.3869 3.26291 21.1653 3.26576 20.9421V3.13347C3.26576 2.68419 3.44455 2.25331 3.76282 1.93562C4.08108 1.61793 4.51273 1.43945 4.96282 1.43945H15.9795C16.4296 1.43945 16.8612 1.61793 17.1795 1.93562C17.4978 2.25331 17.6765 2.68419 17.6765 3.13347V11.3558C17.6765 11.6448 17.9109 11.8792 18.1999 11.8792H19.4018C19.6909 11.8792 19.9252 11.6448 19.9252 11.3558V10.1792C19.9252 9.95657 19.7805 9.76409 19.5875 9.65312C19.3357 9.50841 19.1174 9.30972 18.949 9.0697C18.7092 8.72769 18.5831 8.31907 18.5887 7.90163C18.6095 7.40287 18.8174 6.93012 19.1711 6.57713ZM9.52366 11.4861C9.23464 11.4861 9.00034 11.7205 9.00034 12.0094V14.4439C9.00034 14.733 9.23464 14.9672 9.52366 14.9672H11.1711C11.4601 14.9672 11.6945 14.733 11.6945 14.4439V12.0094C11.6945 11.7205 11.4601 11.4861 11.1711 11.4861H9.52366ZM5.49312 11.4861C5.20411 11.4861 4.9698 11.7205 4.9698 12.0094V14.4439C4.9698 14.733 5.20411 14.9672 5.49312 14.9672H7.14057C7.4296 14.9672 7.6639 14.733 7.6639 14.4439V12.0094C7.6639 11.7205 7.4296 11.4861 7.14057 11.4861H5.49312ZM15.2016 9.52117C15.4906 9.52117 15.7249 9.28687 15.7249 8.99784V3.99919C15.7249 3.71016 15.4906 3.47586 15.2016 3.47586H5.71949C5.43047 3.47586 5.19617 3.71016 5.19617 3.99919V8.99784C5.19617 9.28687 5.43047 9.52117 5.71949 9.52117H15.2016ZM15.2016 14.9672C15.4907 14.9672 15.7249 14.733 15.7249 14.4439V12.0094C15.7249 11.7205 15.4907 11.4861 15.2016 11.4861H13.5542C13.2651 11.4861 13.0309 11.7205 13.0309 12.0094V14.4439C13.0309 14.733 13.2651 14.9672 13.5542 14.9672H15.2016ZM5.49316 17.6512C5.24927 17.6512 5.05156 17.8488 5.05156 18.0928C5.05156 18.3366 5.24927 18.5344 5.49316 18.5344H15.2833C15.5273 18.5344 15.7249 18.3366 15.7249 18.0928C15.7249 17.8488 15.5273 17.6512 15.2833 17.6512H5.49316Z" fill="url(#paint0_linear_74752_9580)"/>
</g>
<g style="mix-blend-mode:overlay" filter="url(#filter1_i_74752_9580)">
<path fill-rule="evenodd" clip-rule="evenodd" d="M19.1711 6.57713C19.5247 6.22414 19.9983 6.01668 20.498 5.99587C20.7596 5.98735 21.0202 6.03144 21.2643 6.12553C21.5086 6.21961 21.7313 6.36176 21.9192 6.5435C22.1073 6.72526 22.2568 6.94291 22.3588 7.18351C22.4609 7.4241 22.5134 7.68273 22.5132 7.94399C22.5146 8.35238 22.3888 8.7511 22.1531 9.08496C21.989 9.31747 21.7774 9.51051 21.5336 9.65225C21.3418 9.76381 21.198 9.9558 21.198 10.1777V12.366C21.198 12.9437 20.7257 13.4121 20.1431 13.4121H18.1999C17.9109 13.4121 17.6765 13.6464 17.6765 13.9354V20.9421C17.6765 21.3914 17.4978 21.8223 17.1795 22.1399C16.8612 22.4576 16.4296 22.6362 15.9795 22.6362H4.96282C4.73917 22.6389 4.51722 22.5971 4.31003 22.513C4.10284 22.4288 3.91463 22.3042 3.75647 22.1463C3.59831 21.9884 3.47341 21.8006 3.38913 21.5937C3.30486 21.3869 3.26291 21.1653 3.26576 20.9421V3.13347C3.26576 2.68419 3.44455 2.25331 3.76282 1.93562C4.08108 1.61793 4.51273 1.43945 4.96282 1.43945H15.9795C16.4296 1.43945 16.8612 1.61793 17.1795 1.93562C17.4978 2.25331 17.6765 2.68419 17.6765 3.13347V11.3558C17.6765 11.6448 17.9109 11.8792 18.1999 11.8792H19.4018C19.6909 11.8792 19.9252 11.6448 19.9252 11.3558V10.1792C19.9252 9.95657 19.7805 9.76409 19.5875 9.65312C19.3357 9.50841 19.1174 9.30972 18.949 9.0697C18.7092 8.72769 18.5831 8.31907 18.5887 7.90163C18.6095 7.40287 18.8174 6.93012 19.1711 6.57713ZM9.52366 11.4861C9.23464 11.4861 9.00034 11.7205 9.00034 12.0094V14.4439C9.00034 14.733 9.23464 14.9672 9.52366 14.9672H11.1711C11.4601 14.9672 11.6945 14.733 11.6945 14.4439V12.0094C11.6945 11.7205 11.4601 11.4861 11.1711 11.4861H9.52366ZM5.49312 11.4861C5.20411 11.4861 4.9698 11.7205 4.9698 12.0094V14.4439C4.9698 14.733 5.20411 14.9672 5.49312 14.9672H7.14057C7.4296 14.9672 7.6639 14.733 7.6639 14.4439V12.0094C7.6639 11.7205 7.4296 11.4861 7.14057 11.4861H5.49312ZM15.2016 9.52117C15.4906 9.52117 15.7249 9.28687 15.7249 8.99784V3.99919C15.7249 3.71016 15.4906 3.47586 15.2016 3.47586H5.71949C5.43047 3.47586 5.19617 3.71016 5.19617 3.99919V8.99784C5.19617 9.28687 5.43047 9.52117 5.71949 9.52117H15.2016ZM15.2016 14.9672C15.4907 14.9672 15.7249 14.733 15.7249 14.4439V12.0094C15.7249 11.7205 15.4907 11.4861 15.2016 11.4861H13.5542C13.2651 11.4861 13.0309 11.7205 13.0309 12.0094V14.4439C13.0309 14.733 13.2651 14.9672 13.5542 14.9672H15.2016ZM5.49316 17.6512C5.24927 17.6512 5.05156 17.8488 5.05156 18.0928C5.05156 18.3366 5.24927 18.5344 5.49316 18.5344H15.2833C15.5273 18.5344 15.7249 18.3366 15.7249 18.0928C15.7249 17.8488 15.5273 17.6512 15.2833 17.6512H5.49316Z" fill="url(#paint1_linear_74752_9580)"/>
</g>
<path d="M5.49433 17.6504C5.25045 17.6504 5.05273 17.8482 5.05273 18.092C5.05273 18.3359 5.25045 18.5336 5.49433 18.5336H15.2845C15.5285 18.5336 15.7261 18.3359 15.7261 18.092C15.7261 17.8482 15.5285 17.6504 15.2845 17.6504H5.49433Z" fill="#422815"/>
</g>
</g>
</g>
<defs>
<filter id="filter0_i_74752_9580" x="3.26562" y="1.43945" width="19.748" height="21.6973" filterUnits="userSpaceOnUse" color-interpolation-filters="sRGB">
<feFlood flood-opacity="0" result="BackgroundImageFix"/>
<feBlend mode="normal" in="SourceGraphic" in2="BackgroundImageFix" result="shape"/>
<feColorMatrix in="SourceAlpha" type="matrix" values="0 0 0 0 0 0 0 0 0 0 0 0 0 0 0 0 0 0 127 0" result="hardAlpha"/>
<feOffset dx="0.5" dy="0.5"/>
<feGaussianBlur stdDeviation="0.25"/>
<feComposite in2="hardAlpha" operator="arithmetic" k2="-1" k3="1"/>
<feColorMatrix type="matrix" values="0 0 0 0 0.976471 0 0 0 0 0.937255 0 0 0 0 0.784314 0 0 0 1 0"/>
<feBlend mode="normal" in2="shape" result="effect1_innerShadow_74752_9580"/>
</filter>
<filter id="filter1_i_74752_9580" x="3.26562" y="1.43945" width="19.748" height="21.6973" filterUnits="userSpaceOnUse" color-interpolation-filters="sRGB">
<feFlood flood-opacity="0" result="BackgroundImageFix"/>
<feBlend mode="normal" in="SourceGraphic" in2="BackgroundImageFix" result="shape"/>
<feColorMatrix in="SourceAlpha" type="matrix" values="0 0 0 0 0 0 0 0 0 0 0 0 0 0 0 0 0 0 127 0" result="hardAlpha"/>
<feOffset dx="0.5" dy="0.5"/>
<feGaussianBlur stdDeviation="0.25"/>
<feComposite in2="hardAlpha" operator="arithmetic" k2="-1" k3="1"/>
<feColorMatrix type="matrix" values="0 0 0 0 0.976471 0 0 0 0 0.937255 0 0 0 0 0.784314 0 0 0 1 0"/>
<feBlend mode="normal" in2="shape" result="effect1_innerShadow_74752_9580"/>
</filter>
<linearGradient id="paint0_linear_74752_9580" x1="12.8894" y1="22.6363" x2="12.8894" y2="1.43945" gradientUnits="userSpaceOnUse">
<stop stop-color="#A47000"/>
<stop offset="0.4" stop-color="#E8940E"/>
<stop offset="0.6" stop-color="#F4C016"/>
<stop offset="0.8" stop-color="#FEE923"/>
<stop offset="1" stop-color="#FFF17F"/>
</linearGradient>
<linearGradient id="paint1_linear_74752_9580" x1="12.8894" y1="1.43945" x2="12.8894" y2="22.6363" gradientUnits="userSpaceOnUse">
<stop stop-color="#9A3F19"/>
<stop offset="1" stop-color="#FF5620"/>
</linearGradient>
<clipPath id="clip0_74752_9580">
<rect width="24" height="24" fill="white"/>
</clipPath>
</defs>
</svg>
