<svg width="24" height="26" viewBox="0 0 24 26" fill="none" xmlns="http://www.w3.org/2000/svg">
<path d="M18.6565 2.20622C16.9711 1.49042 14.2255 1.32422 12.0013 1.32422C9.49747 1.32422 6.33166 1.53443 4.76309 2.50377C4.07699 2.92775 3.65729 3.69519 3.4692 4.47948C3.03517 6.28937 2.90234 9.73008 2.90234 12.6978C2.90234 15.6036 3.02954 18.9594 3.44234 20.7978C3.70034 21.9474 4.41194 23.0028 5.46074 23.5878C7.07714 24.489 10.1167 24.675 12.5383 24.675C15.0306 24.675 18.1777 24.4553 19.7539 23.4933C20.458 23.0635 20.8887 22.2786 21.0781 21.4758C21.5061 19.6626 21.6373 16.2434 21.6373 13.284C21.6373 10.428 21.5149 7.14962 21.1219 5.29202C20.8399 3.95942 19.9297 2.74802 18.6565 2.20622Z" fill="#502C15" stroke="#502C15" stroke-miterlimit="10"/>
<g filter="url(#filter0_i_74752_9462)">
<path d="M20.5323 4.47552C20.3445 3.69401 19.9263 2.92941 19.243 2.50602C17.6757 1.53476 14.5076 1.32422 12.0013 1.32422C9.49747 1.32422 6.33166 1.53443 4.76309 2.50377C4.07699 2.92775 3.65729 3.69519 3.4692 4.47948C3.03517 6.28937 2.90234 9.73008 2.90234 12.6978C2.90234 15.6597 3.03496 19.0887 3.46643 20.9025C3.65514 21.6959 4.07349 22.4756 4.76479 22.9081C6.33444 23.8902 9.49842 24.0894 12.0013 24.0894C14.4937 24.0894 17.6417 23.8696 19.2178 22.907C19.921 22.4774 20.3515 21.6933 20.5409 20.8913C20.969 19.0783 21.1003 15.6578 21.1003 12.6978C21.1003 9.71938 20.9666 6.28195 20.5323 4.47552Z" fill="url(#paint0_linear_74752_9462)"/>
</g>
<path d="M20.5323 4.47552C20.3445 3.69401 19.9263 2.92941 19.243 2.50602C17.6757 1.53476 14.5076 1.32422 12.0013 1.32422C9.49747 1.32422 6.33166 1.53443 4.76309 2.50377C4.07699 2.92775 3.65729 3.69519 3.4692 4.47948C3.03517 6.28937 2.90234 9.73008 2.90234 12.6978C2.90234 15.6597 3.03496 19.0887 3.46643 20.9025C3.65514 21.6959 4.07349 22.4756 4.76479 22.9081C6.33444 23.8902 9.49842 24.0894 12.0013 24.0894C14.4937 24.0894 17.6417 23.8696 19.2178 22.907C19.921 22.4774 20.3515 21.6933 20.5409 20.8913C20.969 19.0783 21.1003 15.6578 21.1003 12.6978C21.1003 9.71938 20.9666 6.28195 20.5323 4.47552Z" stroke="#502C15" stroke-miterlimit="10"/>
<path d="M14.3168 14.8261C13.4425 15.7999 12.4641 16.5287 11.9994 16.8523C11.5204 16.5367 10.5229 15.8059 9.64317 14.8261C8.73466 13.8142 8.01953 12.6124 8.01953 11.3775C8.01953 10.2545 8.6938 9.37763 9.63197 9.14252C10.4131 9.00945 11.1474 9.33523 11.5791 9.88815C11.6759 10.0122 11.8255 10.0834 11.9828 10.0803C12.1401 10.0773 12.2868 10.0004 12.3788 9.87279C12.8091 9.27582 13.5324 8.95432 14.362 9.14075L14.3764 9.14375C15.3021 9.3234 16.027 10.2427 15.9816 11.3572L15.9813 11.368C15.9576 12.6072 15.2269 13.8125 14.3168 14.8261Z" fill="#F9EFC8" stroke="#502C15" stroke-linejoin="round"/>
<path d="M5 5.30435C5 5.82609 5.32588 6.23188 5.8147 6.34783C6.19489 6.4058 6.52077 6.28986 6.79233 6C7.00958 6.28986 7.33546 6.4058 7.71566 6.34783C8.15016 6.23188 8.47604 5.82609 8.47604 5.30435C8.47604 4.2029 7.22684 3.27536 6.84665 3.04348C6.79233 2.98551 6.68371 2.98551 6.62939 3.04348C6.2492 3.27536 5 4.2029 5 5.30435Z" fill="#502C15"/>
<path d="M18.8003 20.0599C18.8003 19.5382 18.4744 19.1324 17.9856 19.0165C17.6054 18.9585 17.2795 19.0744 17.0079 19.3643C16.7907 19.0744 16.4648 18.9585 16.0846 19.0165C15.6501 19.1324 15.3242 19.5382 15.3242 20.0599C15.3242 21.1614 16.5734 22.0889 16.9536 22.3208C17.0079 22.3788 17.1166 22.3788 17.1709 22.3208C17.5511 22.0889 18.8003 21.1614 18.8003 20.0599Z" fill="#502C15"/>
<defs>
<filter id="filter0_i_74752_9462" x="2.40234" y="0.824219" width="19.6973" height="24.2656" filterUnits="userSpaceOnUse" color-interpolation-filters="sRGB">
<feFlood flood-opacity="0" result="BackgroundImageFix"/>
<feBlend mode="normal" in="SourceGraphic" in2="BackgroundImageFix" result="shape"/>
<feColorMatrix in="SourceAlpha" type="matrix" values="0 0 0 0 0 0 0 0 0 0 0 0 0 0 0 0 0 0 127 0" result="hardAlpha"/>
<feOffset dx="1" dy="1.5"/>
<feGaussianBlur stdDeviation="0.25"/>
<feComposite in2="hardAlpha" operator="arithmetic" k2="-1" k3="1"/>
<feColorMatrix type="matrix" values="0 0 0 0 0.976471 0 0 0 0 0.937255 0 0 0 0 0.784314 0 0 0 1 0"/>
<feBlend mode="normal" in2="shape" result="effect1_innerShadow_74752_9462"/>
</filter>
<linearGradient id="paint0_linear_74752_9462" x1="12.0013" y1="24.0894" x2="12.0013" y2="1.32422" gradientUnits="userSpaceOnUse">
<stop stop-color="#A47000"/>
<stop offset="0.4" stop-color="#E8940E"/>
<stop offset="0.6" stop-color="#F4C016"/>
<stop offset="0.8" stop-color="#FEE923"/>
<stop offset="1" stop-color="#FFF17F"/>
</linearGradient>
</defs>
</svg>
