<svg width="24" height="26" viewBox="0 0 24 26" fill="none" xmlns="http://www.w3.org/2000/svg">
<g clip-path="url(#clip0_74752_9698)">
<path d="M5.54072 20.7526C5.56099 20.8987 5.59388 21.0612 5.64626 21.2313C5.84108 21.8639 6.30811 22.5962 7.33852 22.9509C8.37477 23.3076 9.24108 22.9981 9.81991 22.6226C10.1072 22.4363 10.3304 22.2305 10.4817 22.072C10.5578 21.9923 10.617 21.9232 10.6584 21.8724C10.6791 21.847 10.6954 21.8261 10.7072 21.8106L10.7215 21.7916L10.726 21.7853L10.7277 21.783L10.7284 21.7821C10.7285 21.7819 10.7289 21.7813 10.3224 21.4903L10.7284 21.7821L10.729 21.7812C11.5824 20.5883 12.2084 19.2081 12.576 17.7869C12.7871 18.3159 12.9373 18.7735 13.0284 19.3418C13.1659 20.1994 13.1704 21.3311 12.9798 23.3176C12.8953 23.7939 13.202 24.2557 13.6782 24.3601C13.7503 24.3762 13.817 24.3808 13.8727 24.3808C14.2891 24.3808 14.6654 24.0928 14.758 23.6671C14.7613 23.652 14.7639 23.6367 14.7657 23.6213C15.074 21.0901 14.9233 19.3546 14.5457 17.8708C14.6931 18.0416 14.8442 18.2089 14.9988 18.3705C15.6441 19.045 16.3737 19.646 17.1699 19.9908L17.3176 19.6497C17.17 19.9908 17.1698 19.9907 17.1699 19.9908L17.1719 19.9916L17.1745 19.9927L17.1816 19.9957L17.2037 20.0047C17.2218 20.0119 17.2465 20.0215 17.2773 20.0326C17.3389 20.0548 17.4253 20.0836 17.5316 20.1127C17.7429 20.1707 18.0402 20.2322 18.3825 20.244C19.072 20.2678 19.9741 20.0871 20.6787 19.2476C21.3791 18.413 21.4023 17.5447 21.2436 16.9022C21.2009 16.7293 21.1453 16.5729 21.0874 16.4372C21.6369 16.2259 22.1183 15.8392 22.4324 15.3381C22.8787 14.6255 22.9699 13.71 22.6721 12.9234C22.3437 12.0564 21.5827 11.4553 20.8598 11.1074C19.4553 10.4312 17.9517 10.3828 16.505 10.5611C17.7328 9.72617 18.8274 8.68226 19.532 7.22101L19.2171 7.06914C19.532 7.22099 19.5319 7.2212 19.532 7.22101L19.5329 7.21914L19.5341 7.21659L19.5375 7.20955L19.5473 7.18787C19.5553 7.17011 19.5658 7.14577 19.5782 7.11542C19.6029 7.05482 19.6351 6.9697 19.6686 6.86466C19.7351 6.65591 19.8086 6.36136 19.8343 6.01987C19.8861 5.33187 19.7422 4.42326 18.9319 3.6852C18.1264 2.95143 17.2597 2.89312 16.6112 3.02571C16.4368 3.06137 16.2783 3.11051 16.1403 3.16285C15.9515 2.60544 15.5849 2.10896 15.0969 1.77461C14.4029 1.29913 13.4915 1.17165 12.6941 1.43697C11.8144 1.72986 11.1832 2.46563 10.806 3.17377C10.19 4.33055 10.0147 5.57558 10.0455 6.80631C9.43844 5.73698 8.64757 4.76172 7.52514 4.0882C6.83731 3.67533 5.91703 3.36968 5.01237 3.57127C4.19127 3.75435 3.47622 4.33342 3.12609 5.09753C2.87976 5.63544 2.82109 6.25018 2.94637 6.82527C2.80103 6.85149 2.63978 6.89103 2.47173 6.95039C1.84752 7.17085 1.13455 7.66724 0.821809 8.71102C0.507227 9.76095 0.851714 10.614 1.25042 11.1771C1.44832 11.4566 1.66306 11.6712 1.82756 11.8159C1.91032 11.8888 1.9818 11.9451 2.03418 11.9844C2.06042 12.004 2.08199 12.0194 2.09793 12.0306L2.11756 12.0441L2.12401 12.0484L2.12636 12.05L2.12732 12.0506C2.12751 12.0507 2.12812 12.0511 2.40136 11.6345L2.12732 12.0506C3.48391 12.9404 4.96057 13.2722 6.44284 13.3557C5.11094 13.9478 3.84708 14.7636 2.9914 16.0664C2.55092 16.7369 2.2082 17.6441 2.37319 18.5563C2.52282 19.3837 3.07206 20.122 3.82182 20.5027L5.54072 20.7526ZM5.54072 20.7526C4.96103 20.8544 4.34912 20.7707 3.82182 20.5027L5.54072 20.7526Z" fill="#422815"/>
<path d="M5.54072 20.7526C5.56099 20.8987 5.59388 21.0612 5.64626 21.2313C5.84108 21.8639 6.30811 22.5962 7.33852 22.9509C8.37477 23.3076 9.24108 22.9981 9.81991 22.6226C10.1072 22.4363 10.3304 22.2305 10.4817 22.072C10.5578 21.9923 10.617 21.9232 10.6584 21.8724C10.6791 21.847 10.6954 21.8261 10.7072 21.8106L10.7215 21.7916L10.726 21.7853L10.7277 21.783L10.7284 21.7821M5.54072 20.7526L3.82182 20.5027M5.54072 20.7526C4.96103 20.8544 4.34912 20.7707 3.82182 20.5027M10.7284 21.7821C10.7285 21.7819 10.7289 21.7813 10.3224 21.4903L10.7284 21.7821ZM10.7284 21.7821L10.729 21.7812C11.5824 20.5883 12.2084 19.2081 12.576 17.7869C12.7871 18.3159 12.9373 18.7735 13.0284 19.3418C13.1659 20.1994 13.1704 21.3311 12.9798 23.3176C12.8953 23.7939 13.202 24.2557 13.6782 24.3601C13.7503 24.3762 13.817 24.3808 13.8727 24.3808C14.2891 24.3808 14.6654 24.0928 14.758 23.6671C14.7613 23.652 14.7639 23.6367 14.7657 23.6213C15.074 21.0901 14.9233 19.3546 14.5457 17.8708C14.6931 18.0416 14.8442 18.2089 14.9988 18.3705C15.6441 19.045 16.3737 19.646 17.1699 19.9908M3.82182 20.5027C3.07206 20.122 2.52282 19.3837 2.37319 18.5563C2.2082 17.6441 2.55092 16.7369 2.9914 16.0664C3.84708 14.7636 5.11094 13.9478 6.44284 13.3557C4.96057 13.2722 3.48391 12.9404 2.12732 12.0506M17.1699 19.9908L17.3176 19.6497C17.17 19.9908 17.1698 19.9907 17.1699 19.9908ZM17.1699 19.9908L17.1719 19.9916L17.1745 19.9927L17.1816 19.9957L17.2037 20.0047C17.2218 20.0119 17.2465 20.0215 17.2773 20.0326C17.3389 20.0548 17.4253 20.0836 17.5316 20.1127C17.7429 20.1707 18.0402 20.2322 18.3825 20.244C19.072 20.2678 19.9741 20.0871 20.6787 19.2476C21.3791 18.413 21.4023 17.5447 21.2436 16.9022C21.2009 16.7293 21.1453 16.5729 21.0874 16.4372C21.6369 16.2259 22.1183 15.8392 22.4324 15.3381C22.8787 14.6255 22.9699 13.71 22.6721 12.9234C22.3437 12.0564 21.5827 11.4553 20.8598 11.1074C19.4553 10.4312 17.9517 10.3828 16.505 10.5611C17.7328 9.72617 18.8274 8.68226 19.532 7.22101M2.12732 12.0506L2.12636 12.05L2.12401 12.0484L2.11756 12.0441L2.09793 12.0306C2.08199 12.0194 2.06042 12.004 2.03418 11.9844C1.9818 11.9451 1.91032 11.8888 1.82756 11.8159C1.66306 11.6712 1.44832 11.4566 1.25042 11.1771C0.851714 10.614 0.507227 9.76095 0.821809 8.71102C1.13455 7.66724 1.84752 7.17085 2.47173 6.95039C2.63978 6.89103 2.80103 6.85149 2.94637 6.82527C2.82109 6.25018 2.87976 5.63544 3.12609 5.09753C3.47622 4.33342 4.19127 3.75435 5.01237 3.57127C5.91703 3.36968 6.83731 3.67533 7.52514 4.0882C8.64757 4.76172 9.43844 5.73698 10.0455 6.80631C10.0147 5.57558 10.19 4.33055 10.806 3.17377C11.1832 2.46563 11.8144 1.72986 12.6941 1.43697C13.4915 1.17165 14.4029 1.29913 15.0969 1.77461C15.5849 2.10896 15.9515 2.60544 16.1403 3.16285C16.2783 3.11051 16.4368 3.06137 16.6112 3.02571C17.2597 2.89312 18.1264 2.95143 18.9319 3.6852C19.7422 4.42326 19.8861 5.33187 19.8343 6.01987C19.8086 6.36136 19.7351 6.65591 19.6686 6.86466C19.6351 6.9697 19.6029 7.05482 19.5782 7.11542C19.5658 7.14577 19.5553 7.17011 19.5473 7.18787L19.5375 7.20955L19.5341 7.21659L19.5329 7.21914L19.532 7.22101M2.12732 12.0506C2.12751 12.0507 2.12812 12.0511 2.40136 11.6345L2.12732 12.0506ZM19.532 7.22101L19.2171 7.06914C19.532 7.22099 19.5319 7.2212 19.532 7.22101Z" stroke="#422815" stroke-linejoin="round"/>
<path d="M6.04072 21.2526C6.06099 21.3987 6.09388 21.5612 6.14626 21.7313C6.34108 22.3639 6.80811 23.0962 7.83852 23.4509C8.87477 23.8076 9.74108 23.4981 10.3199 23.1226C10.6072 22.9363 10.8304 22.7305 10.9817 22.572C11.0578 22.4923 11.117 22.4232 11.1584 22.3724C11.1791 22.347 11.1954 22.3261 11.2072 22.3106L11.2215 22.2916L11.226 22.2853L11.2277 22.283L11.2284 22.2821C11.2285 22.2819 11.2289 22.2813 10.8224 21.9903L11.2284 22.2821L11.229 22.2812C12.0824 21.0883 12.7084 19.7081 13.076 18.2869C13.2871 18.8159 13.4373 19.2735 13.5284 19.8418C13.6659 20.6994 13.6704 21.8311 13.4798 23.8176C13.3953 24.2939 13.702 24.7557 14.1782 24.8601C14.2503 24.8762 14.317 24.8808 14.3727 24.8808C14.7891 24.8808 15.1654 24.5928 15.258 24.1671C15.2613 24.152 15.2639 24.1367 15.2657 24.1213C15.574 21.5901 15.4233 19.8546 15.0457 18.3708C15.1931 18.5416 15.3442 18.7089 15.4988 18.8705C16.1441 19.545 16.8737 20.146 17.6699 20.4908L17.8176 20.1497C17.67 20.4908 17.6698 20.4907 17.6699 20.4908L17.6719 20.4916L17.6745 20.4927L17.6816 20.4957L17.7037 20.5047C17.7218 20.5119 17.7465 20.5215 17.7773 20.5326C17.8389 20.5548 17.9253 20.5836 18.0316 20.6127C18.2429 20.6707 18.5402 20.7322 18.8825 20.744C19.572 20.7678 20.4741 20.5871 21.1787 19.7476C21.8791 18.913 21.9023 18.0447 21.7436 17.4022C21.7009 17.2293 21.6453 17.0729 21.5874 16.9372C22.1369 16.7259 22.6183 16.3392 22.9324 15.8381C23.3787 15.1255 23.4699 14.21 23.1721 13.4234C22.8437 12.5564 22.0827 11.9553 21.3598 11.6074C19.9553 10.9312 18.4517 10.8828 17.005 11.0611C18.2328 10.2262 19.3274 9.18226 20.032 7.72101L19.7171 7.56914C20.032 7.72099 20.0319 7.7212 20.032 7.72101L20.0329 7.71914L20.0341 7.71659L20.0375 7.70955L20.0473 7.68787C20.0553 7.67011 20.0658 7.64577 20.0782 7.61542C20.1029 7.55482 20.1351 7.4697 20.1686 7.36466C20.2351 7.15591 20.3086 6.86136 20.3343 6.51987C20.3861 5.83187 20.2422 4.92326 19.4319 4.1852C18.6264 3.45143 17.7597 3.39312 17.1112 3.52571C16.9368 3.56137 16.7783 3.61051 16.6403 3.66285C16.4515 3.10544 16.0849 2.60896 15.5969 2.27461C14.9029 1.79913 13.9915 1.67165 13.1941 1.93697C12.3144 2.22986 11.6832 2.96563 11.306 3.67377C10.69 4.83055 10.5147 6.07558 10.5455 7.30631C9.93844 6.23698 9.14757 5.26172 8.02514 4.5882C7.33731 4.17533 6.41703 3.86968 5.51237 4.07127C4.69127 4.25435 3.97622 4.83342 3.62609 5.59753C3.37976 6.13544 3.32109 6.75018 3.44637 7.32527C3.30103 7.35149 3.13978 7.39103 2.97173 7.45039C2.34752 7.67085 1.63455 8.16724 1.32181 9.21102C1.00723 10.2609 1.35171 11.114 1.75042 11.6771C1.94832 11.9566 2.16306 12.1712 2.32756 12.3159C2.41032 12.3888 2.4818 12.4451 2.53418 12.4844C2.56042 12.504 2.58199 12.5194 2.59793 12.5306L2.61756 12.5441L2.62401 12.5484L2.62636 12.55L2.62732 12.5506C2.62751 12.5507 2.62812 12.5511 2.90136 12.1345L2.62732 12.5506C3.98391 13.4404 5.46057 13.7722 6.94284 13.8557C5.61094 14.4478 4.34708 15.2636 3.4914 16.5664C3.05092 17.2369 2.7082 18.1441 2.87319 19.0563C3.02282 19.8837 3.57206 20.622 4.32182 21.0027L6.04072 21.2526ZM6.04072 21.2526C5.46103 21.3544 4.84912 21.2707 4.32182 21.0027L6.04072 21.2526Z" fill="#422815"/>
<path d="M6.04072 21.2526C6.06099 21.3987 6.09388 21.5612 6.14626 21.7313C6.34108 22.3639 6.80811 23.0962 7.83852 23.4509C8.87477 23.8076 9.74108 23.4981 10.3199 23.1226C10.6072 22.9363 10.8304 22.7305 10.9817 22.572C11.0578 22.4923 11.117 22.4232 11.1584 22.3724C11.1791 22.347 11.1954 22.3261 11.2072 22.3106L11.2215 22.2916L11.226 22.2853L11.2277 22.283L11.2284 22.2821M6.04072 21.2526L4.32182 21.0027M6.04072 21.2526C5.46103 21.3544 4.84912 21.2707 4.32182 21.0027M11.2284 22.2821C11.2285 22.2819 11.2289 22.2813 10.8224 21.9903L11.2284 22.2821ZM11.2284 22.2821L11.229 22.2812C12.0824 21.0883 12.7084 19.7081 13.076 18.2869C13.2871 18.8159 13.4373 19.2735 13.5284 19.8418C13.6659 20.6994 13.6704 21.8311 13.4798 23.8176C13.3953 24.2939 13.702 24.7557 14.1782 24.8601C14.2503 24.8762 14.317 24.8808 14.3727 24.8808C14.7891 24.8808 15.1654 24.5928 15.258 24.1671C15.2613 24.152 15.2639 24.1367 15.2657 24.1213C15.574 21.5901 15.4233 19.8546 15.0457 18.3708C15.1931 18.5416 15.3442 18.7089 15.4988 18.8705C16.1441 19.545 16.8737 20.146 17.6699 20.4908M4.32182 21.0027C3.57206 20.622 3.02282 19.8837 2.87319 19.0563C2.7082 18.1441 3.05092 17.2369 3.4914 16.5664C4.34708 15.2636 5.61094 14.4478 6.94284 13.8557C5.46057 13.7722 3.98391 13.4404 2.62732 12.5506M17.6699 20.4908L17.8176 20.1497C17.67 20.4908 17.6698 20.4907 17.6699 20.4908ZM17.6699 20.4908L17.6719 20.4916L17.6745 20.4927L17.6816 20.4957L17.7037 20.5047C17.7218 20.5119 17.7465 20.5215 17.7773 20.5326C17.8389 20.5548 17.9253 20.5836 18.0316 20.6127C18.2429 20.6707 18.5402 20.7322 18.8825 20.744C19.572 20.7678 20.4741 20.5871 21.1787 19.7476C21.8791 18.913 21.9023 18.0447 21.7436 17.4022C21.7009 17.2293 21.6453 17.0729 21.5874 16.9372C22.1369 16.7259 22.6183 16.3392 22.9324 15.8381C23.3787 15.1255 23.4699 14.21 23.1721 13.4234C22.8437 12.5564 22.0827 11.9553 21.3598 11.6074C19.9553 10.9312 18.4517 10.8828 17.005 11.0611C18.2328 10.2262 19.3274 9.18226 20.032 7.72101M2.62732 12.5506L2.62636 12.55L2.62401 12.5484L2.61756 12.5441L2.59793 12.5306C2.58199 12.5194 2.56042 12.504 2.53418 12.4844C2.4818 12.4451 2.41032 12.3888 2.32756 12.3159C2.16306 12.1712 1.94832 11.9566 1.75042 11.6771C1.35171 11.114 1.00723 10.2609 1.32181 9.21102C1.63455 8.16724 2.34752 7.67085 2.97173 7.45039C3.13978 7.39103 3.30103 7.35149 3.44637 7.32527C3.32109 6.75018 3.37976 6.13544 3.62609 5.59753C3.97622 4.83342 4.69127 4.25435 5.51237 4.07127C6.41703 3.86968 7.33731 4.17533 8.02514 4.5882C9.14757 5.26172 9.93844 6.23698 10.5455 7.30631C10.5147 6.07558 10.69 4.83055 11.306 3.67377C11.6832 2.96563 12.3144 2.22986 13.1941 1.93697C13.9915 1.67165 14.9029 1.79913 15.5969 2.27461C16.0849 2.60896 16.4515 3.10544 16.6403 3.66285C16.7783 3.61051 16.9368 3.56137 17.1112 3.52571C17.7597 3.39312 18.6264 3.45143 19.4319 4.1852C20.2422 4.92326 20.3861 5.83187 20.3343 6.51987C20.3086 6.86136 20.2351 7.15591 20.1686 7.36466C20.1351 7.4697 20.1029 7.55482 20.0782 7.61542C20.0658 7.64577 20.0553 7.67011 20.0473 7.68787L20.0375 7.70955L20.0341 7.71659L20.0329 7.71914L20.032 7.72101M2.62732 12.5506C2.62751 12.5507 2.62812 12.5511 2.90136 12.1345L2.62732 12.5506ZM20.032 7.72101L19.7171 7.56914C20.032 7.72099 20.0319 7.7212 20.032 7.72101Z" stroke="#422815" stroke-linejoin="round"/>
<g filter="url(#filter0_i_74752_9698)">
<path d="M1.30045 8.85453C0.785611 10.5729 2.40202 11.633 2.40202 11.633C4.44402 12.9723 6.79624 12.9694 9.13294 12.8017C9.15883 12.7998 9.18186 12.818 9.18601 12.8436C9.18996 12.868 9.1756 12.8916 9.15206 12.8992C7.02138 13.5879 4.70123 14.3733 3.40897 16.341C3.007 16.9529 2.73131 17.7288 2.86489 18.4674C2.9867 19.141 3.4378 19.7472 4.04807 20.057C4.65833 20.3672 5.41396 20.3741 6.0295 20.0748L6.01894 20.128C6.01894 20.128 5.80456 21.8943 7.50095 22.4781C9.19695 23.062 10.3221 21.4903 10.3221 21.4903C11.3164 20.1005 11.991 18.4389 12.2871 16.7629C12.3204 16.5746 12.5964 16.5393 12.6707 16.7155C13.4799 18.6339 13.863 19.365 13.4749 23.3891C13.4274 23.608 13.5667 23.8244 13.7859 23.8719C13.8148 23.8784 13.844 23.8808 13.8724 23.8808C14.0592 23.8808 14.2277 23.7513 14.2691 23.5609C14.713 19.915 14.1834 17.9961 13.4091 16.0409C13.3475 15.8851 13.5723 15.7651 13.6679 15.9027C14.6654 17.3375 15.9486 18.9172 17.3683 19.532C17.3683 19.532 19.1423 20.3002 20.2954 18.9262C21.4485 17.5522 20.3555 16.1485 20.3555 16.1485L20.319 16.1083C21.0007 16.0474 21.645 15.6523 22.0084 15.0725C22.3718 14.4923 22.4466 13.7407 22.2042 13.1004C21.9382 12.3984 21.3024 11.8754 20.6426 11.5579C18.5216 10.5368 16.1284 11.0583 13.947 11.5649C13.923 11.5705 13.8985 11.5576 13.8894 11.5347C13.8798 11.5106 13.8901 11.4832 13.9132 11.4715C16.0028 10.4118 18.0208 9.2032 19.0814 7.00384C19.0814 7.00384 19.921 5.26278 18.5949 4.05483C17.2688 2.84689 15.8217 3.88227 15.8217 3.88227L15.7803 3.91719C15.747 3.23343 15.3788 2.57404 14.814 2.18709C14.2492 1.80014 13.5009 1.69539 12.8516 1.9114C12.1395 2.14852 11.5913 2.76244 11.247 3.40884C10.1365 5.49457 10.5679 7.91761 10.9872 10.1244C10.989 10.1342 10.9837 10.144 10.9744 10.1478C10.9634 10.1522 10.9509 10.1467 10.9468 10.1356C10.1703 8.0289 9.29235 5.7319 7.26749 4.5169C6.63976 4.1401 5.85328 3.89608 5.1208 4.0593C4.45247 4.20831 3.86535 4.68378 3.58032 5.30582C3.29528 5.92826 3.31924 6.68348 3.64285 7.28644L3.58925 7.27791C3.58925 7.27791 1.8153 7.1362 1.30045 8.85453Z" fill="url(#paint0_linear_74752_9698)"/>
</g>
<g style="mix-blend-mode:overlay" filter="url(#filter1_i_74752_9698)">
<path d="M1.30045 8.85453C0.785611 10.5729 2.40202 11.633 2.40202 11.633C4.44402 12.9723 6.79624 12.9694 9.13294 12.8017C9.15883 12.7998 9.18186 12.818 9.18601 12.8436C9.18996 12.868 9.1756 12.8916 9.15206 12.8992C7.02138 13.5879 4.70123 14.3733 3.40897 16.341C3.007 16.9529 2.73131 17.7288 2.86489 18.4674C2.9867 19.141 3.4378 19.7472 4.04807 20.057C4.65833 20.3672 5.41396 20.3741 6.0295 20.0748L6.01894 20.128C6.01894 20.128 5.80456 21.8943 7.50095 22.4781C9.19695 23.062 10.3221 21.4903 10.3221 21.4903C11.3164 20.1005 11.991 18.4389 12.2871 16.7629C12.3204 16.5746 12.5964 16.5393 12.6707 16.7155C13.4799 18.6339 13.863 19.365 13.4749 23.3891C13.4274 23.608 13.5667 23.8244 13.7859 23.8719C13.8148 23.8784 13.844 23.8808 13.8724 23.8808C14.0592 23.8808 14.2277 23.7513 14.2691 23.5609C14.713 19.915 14.1834 17.9961 13.4091 16.0409C13.3475 15.8851 13.5723 15.7651 13.6679 15.9027C14.6654 17.3375 15.9486 18.9172 17.3683 19.532C17.3683 19.532 19.1423 20.3002 20.2954 18.9262C21.4485 17.5522 20.3555 16.1485 20.3555 16.1485L20.319 16.1083C21.0007 16.0474 21.645 15.6523 22.0084 15.0725C22.3718 14.4923 22.4466 13.7407 22.2042 13.1004C21.9382 12.3984 21.3024 11.8754 20.6426 11.5579C18.5216 10.5368 16.1284 11.0583 13.947 11.5649C13.923 11.5705 13.8985 11.5576 13.8894 11.5347C13.8798 11.5106 13.8901 11.4832 13.9132 11.4715C16.0028 10.4118 18.0208 9.2032 19.0814 7.00384C19.0814 7.00384 19.921 5.26278 18.5949 4.05483C17.2688 2.84689 15.8217 3.88227 15.8217 3.88227L15.7803 3.91719C15.747 3.23343 15.3788 2.57404 14.814 2.18709C14.2492 1.80014 13.5009 1.69539 12.8516 1.9114C12.1395 2.14852 11.5913 2.76244 11.247 3.40884C10.1365 5.49457 10.5679 7.91761 10.9872 10.1244C10.989 10.1342 10.9837 10.144 10.9744 10.1478C10.9634 10.1522 10.9509 10.1467 10.9468 10.1356C10.1703 8.0289 9.29235 5.7319 7.26749 4.5169C6.63976 4.1401 5.85328 3.89608 5.1208 4.0593C4.45247 4.20831 3.86535 4.68378 3.58032 5.30582C3.29528 5.92826 3.31924 6.68348 3.64285 7.28644L3.58925 7.27791C3.58925 7.27791 1.8153 7.1362 1.30045 8.85453Z" fill="url(#paint1_linear_74752_9698)"/>
</g>
</g>
<defs>
<filter id="filter0_i_74752_9698" x="1.19922" y="1.80078" width="21.6465" height="22.5801" filterUnits="userSpaceOnUse" color-interpolation-filters="sRGB">
<feFlood flood-opacity="0" result="BackgroundImageFix"/>
<feBlend mode="normal" in="SourceGraphic" in2="BackgroundImageFix" result="shape"/>
<feColorMatrix in="SourceAlpha" type="matrix" values="0 0 0 0 0 0 0 0 0 0 0 0 0 0 0 0 0 0 127 0" result="hardAlpha"/>
<feOffset dx="0.5" dy="0.5"/>
<feGaussianBlur stdDeviation="0.25"/>
<feComposite in2="hardAlpha" operator="arithmetic" k2="-1" k3="1"/>
<feColorMatrix type="matrix" values="0 0 0 0 0.976471 0 0 0 0 0.937255 0 0 0 0 0.784314 0 0 0 1 0"/>
<feBlend mode="normal" in2="shape" result="effect1_innerShadow_74752_9698"/>
</filter>
<filter id="filter1_i_74752_9698" x="1.19922" y="1.80078" width="21.6465" height="22.5801" filterUnits="userSpaceOnUse" color-interpolation-filters="sRGB">
<feFlood flood-opacity="0" result="BackgroundImageFix"/>
<feBlend mode="normal" in="SourceGraphic" in2="BackgroundImageFix" result="shape"/>
<feColorMatrix in="SourceAlpha" type="matrix" values="0 0 0 0 0 0 0 0 0 0 0 0 0 0 0 0 0 0 127 0" result="hardAlpha"/>
<feOffset dx="0.5" dy="0.5"/>
<feGaussianBlur stdDeviation="0.25"/>
<feComposite in2="hardAlpha" operator="arithmetic" k2="-1" k3="1"/>
<feColorMatrix type="matrix" values="0 0 0 0 0.976471 0 0 0 0 0.937255 0 0 0 0 0.784314 0 0 0 1 0"/>
<feBlend mode="normal" in2="shape" result="effect1_innerShadow_74752_9698"/>
</filter>
<linearGradient id="paint0_linear_74752_9698" x1="11.772" y1="23.8808" x2="11.772" y2="1.80078" gradientUnits="userSpaceOnUse">
<stop stop-color="#A47000"/>
<stop offset="0.4" stop-color="#E8940E"/>
<stop offset="0.6" stop-color="#F4C016"/>
<stop offset="0.8" stop-color="#FEE923"/>
<stop offset="1" stop-color="#FFF17F"/>
</linearGradient>
<linearGradient id="paint1_linear_74752_9698" x1="11.772" y1="1.80078" x2="11.772" y2="23.8808" gradientUnits="userSpaceOnUse">
<stop stop-color="#9A3F19"/>
<stop offset="1" stop-color="#FF5620"/>
</linearGradient>
<clipPath id="clip0_74752_9698">
<rect width="24" height="26" fill="white"/>
</clipPath>
</defs>
</svg>
