<svg viewBox="0 0 24 24" fill="none" xmlns="http://www.w3.org/2000/svg"><path d="M16.304 2.573a.5.5 0 0 1 .17.819l-2.271 2.271a.5.5 0 0 1-.628.064c-1.665-1.093-3.328-1.78-4.834-2.016a7.615 7.615 0 0 0-.379-.05.5.5 0 0 1-.145-.956 10.556 10.556 0 0 1 4.203-.865c1.35 0 2.662.252 3.884.733Zm.743.725a.5.5 0 0 1 .6-.081 10.632 10.632 0 0 1 2.254 1.721c.68.681 1.258 1.439 1.722 2.254a.5.5 0 0 1-.08.601L7.792 21.542a.5.5 0 0 1-.6.08 10.635 10.635 0 0 1-2.254-1.72 10.635 10.635 0 0 1-1.722-2.254.5.5 0 0 1 .08-.601l13.75-13.75Zm-3.898 2.557a.5.5 0 0 1 .086.776l-2.829 2.83A.5.5 0 0 1 9.7 9.46L5.477 5.238a.5.5 0 0 1 .107-.788c.608-.345 1.336-.496 2.122-.488l-.004.5.004-.5c1.602.016 3.53.686 5.443 1.893Zm-8.7-.271a.5.5 0 0 1 .789-.107L9.46 9.699a.5.5 0 0 1 0 .707l-2.829 2.829a.5.5 0 0 1-.776-.087c-.901-1.427-1.499-2.857-1.754-4.15-.252-1.286-.175-2.491.349-3.414ZM2.707 8.216a.5.5 0 0 1 .956.146c.013.125.03.25.05.378.236 1.506.923 3.17 2.016 4.835a.5.5 0 0 1-.065.628l-2.271 2.27a.5.5 0 0 1-.819-.17 10.571 10.571 0 0 1-.733-3.883c0-1.469.298-2.893.866-4.204Zm18.742.15a.5.5 0 0 1 .819.17 10.58 10.58 0 0 1 .733 3.884c0 1.468-.298 2.893-.866 4.203a.5.5 0 0 1-.956-.146 7.545 7.545 0 0 0-.05-.378c-.236-1.506-.923-3.17-2.016-4.835a.5.5 0 0 1 .065-.628l2.271-2.27Zm-3.24 3.239a.5.5 0 0 1 .777.086c.9 1.427 1.499 2.857 1.753 4.15.253 1.286.176 2.491-.348 3.415a.5.5 0 0 1-.788.106l-4.222-4.221a.5.5 0 0 1 0-.708l2.828-2.828Zm-3.775 3.775a.5.5 0 0 1 .707 0l4.222 4.221a.5.5 0 0 1-.106.789c-.924.523-2.129.6-3.414.348-1.294-.255-2.724-.852-4.15-1.753a.5.5 0 0 1-.088-.777l2.83-2.828Zm-3.796 3.797a.5.5 0 0 1 .627-.065c1.666 1.093 3.329 1.78 4.835 2.016.127.02.253.036.379.05a.5.5 0 0 1 .145.956A10.56 10.56 0 0 1 12.42 23a10.58 10.58 0 0 1-3.884-.734.5.5 0 0 1-.17-.819l2.27-2.27Zm7.388-12.124-.239-.239-.24.24.24.24.239-.24Zm-3.577 3.578-.239-.24-.24.24.24.24.24-.24Zm-3.577 3.577-.24-.239-.24.24.24.239.24-.24Zm-3.578 3.577-.239-.239-.24.24.24.24.239-.24Z" fill="#422815" stroke="#422815" stroke-linejoin="round"/><g filter="url(#a)"><path d="M11.58 1.5c1.287 0 2.537.24 3.7.698L13.01 4.47C11.3 3.348 9.57 2.627 7.977 2.377a8.109 8.109 0 0 0-.403-.053A10.056 10.056 0 0 1 11.58 1.5Zm4.98 1.311c.777.443 1.499.992 2.148 1.641.649.65 1.198 1.371 1.64 2.148L6.6 20.348a10.129 10.129 0 0 1-2.148-1.64 10.138 10.138 0 0 1-1.64-2.148L16.56 2.811Zm-9.699.811c1.479.014 3.317.64 5.18 1.816L9.213 8.267 4.991 4.045c.512-.291 1.148-.43 1.87-.423ZM4.044 4.991l4.222 4.222-2.828 2.828c-1.752-2.774-2.28-5.49-1.394-7.05Zm12.902.277-.947.946.946.947.947-.947-.946-.946ZM2.325 7.575c.014.133.031.267.053.403.25 1.593.97 3.323 2.092 5.031L2.198 15.28a10.071 10.071 0 0 1-.698-3.7c0-1.4.284-2.757.825-4.005Zm18.636.304a10.06 10.06 0 0 1 .699 3.701c0 1.4-.285 2.757-.825 4.005a8.177 8.177 0 0 0-.053-.404c-.25-1.592-.97-3.322-2.092-5.031l2.271-2.271Zm-7.592.966-.947.947.946.946.947-.947-.946-.946Zm4.353 2.273c1.751 2.774 2.28 5.49 1.393 7.051l-4.222-4.222 2.829-2.829Zm-7.93 1.304-.947.947.946.946.947-.947-.946-.946Zm4.155 2.471 4.222 4.222c-1.561.886-4.277.359-7.051-1.393l2.829-2.829ZM6.214 16l-.947.947.946.946.947-.947L6.214 16Zm3.936 2.691c1.709 1.122 3.438 1.842 5.031 2.092.136.022.27.039.403.053-1.247.54-2.604.825-4.004.825a10.06 10.06 0 0 1-3.701-.699l2.271-2.27Z" fill="url(#b)"/></g><path d="M15.464 1.733a.5.5 0 0 1 .17.819l-2.271 2.271a.5.5 0 0 1-.628.065C11.07 3.795 9.407 3.108 7.901 2.87a7.615 7.615 0 0 0-.379-.05.5.5 0 0 1-.146-.956A10.556 10.556 0 0 1 11.58 1c1.35 0 2.662.252 3.884.733Zm.743.725a.5.5 0 0 1 .6-.081 10.632 10.632 0 0 1 2.254 1.722 10.65 10.65 0 0 1 1.722 2.253.5.5 0 0 1-.08.601L6.952 20.702a.5.5 0 0 1-.6.08 10.628 10.628 0 0 1-2.254-1.72 10.638 10.638 0 0 1-1.722-2.254.5.5 0 0 1 .08-.601l13.75-13.75Zm-3.898 2.557a.5.5 0 0 1 .086.777L9.566 8.62a.5.5 0 0 1-.707 0L4.637 4.398a.5.5 0 0 1 .107-.788c.608-.345 1.336-.495 2.122-.488l-.005.5.005-.5c1.602.016 3.53.686 5.443 1.893Zm-8.7-.271a.5.5 0 0 1 .789-.107L8.62 8.859a.5.5 0 0 1 0 .707l-2.83 2.829a.5.5 0 0 1-.776-.087c-.901-1.427-1.5-2.857-1.754-4.15-.253-1.286-.175-2.49.349-3.414ZM1.867 7.376a.5.5 0 0 1 .956.146c.013.125.03.25.05.378.236 1.507.923 3.17 2.015 4.835a.5.5 0 0 1-.064.628l-2.271 2.271a.5.5 0 0 1-.819-.17A10.572 10.572 0 0 1 1 11.58c0-1.469.298-2.893.866-4.204Zm18.742.15a.5.5 0 0 1 .819.17 10.58 10.58 0 0 1 .733 3.884c0 1.469-.298 2.893-.866 4.203a.5.5 0 0 1-.956-.145 7.564 7.564 0 0 0-.05-.379c-.236-1.506-.923-3.17-2.016-4.835a.5.5 0 0 1 .065-.628l2.27-2.27Zm-3.24 3.239a.5.5 0 0 1 .777.086c.9 1.427 1.499 2.857 1.753 4.151.253 1.286.176 2.49-.348 3.414a.5.5 0 0 1-.788.107L14.54 14.3a.5.5 0 0 1 0-.707l2.828-2.83Zm-3.775 3.775a.5.5 0 0 1 .707 0l4.222 4.221a.5.5 0 0 1-.107.789c-.923.524-2.128.6-3.413.348-1.294-.254-2.724-.852-4.151-1.753a.5.5 0 0 1-.087-.777l2.83-2.828Zm-3.796 3.797a.5.5 0 0 1 .627-.065c1.666 1.093 3.329 1.78 4.835 2.016.127.02.253.037.379.05a.5.5 0 0 1 .145.956 10.56 10.56 0 0 1-4.203.866 10.56 10.56 0 0 1-3.884-.734.5.5 0 0 1-.17-.819l2.27-2.27Zm7.388-12.123-.24-.24-.239.24.239.24.24-.24ZM13.608 9.79l-.24-.239-.239.24.24.239.24-.24Zm-3.578 3.577-.238-.239-.24.24.239.239.24-.24Zm-3.577 3.577-.239-.238-.24.24.24.238.239-.24Z" stroke="#422815" stroke-linejoin="round"/><g style="mix-blend-mode:overlay"><g filter="url(#c)"><path d="M11.58 1.5c1.288 0 2.538.24 3.7.698L13.01 4.47C11.3 3.348 9.57 2.627 7.979 2.377a8.107 8.107 0 0 0-.404-.053A10.056 10.056 0 0 1 11.58 1.5Zm4.98 1.311c.777.443 1.499.992 2.148 1.641.65.65 1.198 1.371 1.64 2.148L6.6 20.348a10.129 10.129 0 0 1-2.148-1.64 10.138 10.138 0 0 1-1.64-2.148L16.56 2.811Zm-9.698.811c1.478.014 3.316.64 5.18 1.816l-2.83 2.829-4.22-4.222c.511-.291 1.148-.43 1.87-.423ZM4.045 4.991l4.222 4.222-2.83 2.828c-1.75-2.774-2.278-5.49-1.392-7.05Zm12.901.277L16 6.214l.946.947.947-.947-.946-.946ZM2.325 7.575c.014.133.031.267.053.403.25 1.593.97 3.323 2.092 5.031L2.199 15.28a10.071 10.071 0 0 1-.699-3.7c0-1.4.285-2.757.825-4.005Zm18.637.304a10.08 10.08 0 0 1 .698 3.701c0 1.4-.284 2.757-.825 4.005a8.179 8.179 0 0 0-.053-.404c-.25-1.592-.97-3.322-2.091-5.031l2.27-2.271Zm-7.593.966-.947.947.947.946.947-.947-.947-.946Zm4.353 2.273c1.752 2.774 2.28 5.49 1.393 7.051l-4.221-4.222 2.828-2.829Zm-7.93 1.304-.947.947.946.946.947-.947-.946-.946Zm4.155 2.471 4.222 4.222c-1.561.886-4.277.359-7.05-1.393l2.828-2.829ZM6.214 16l-.947.947.946.946.947-.947L6.214 16Zm3.936 2.691c1.71 1.122 3.439 1.842 5.031 2.092.137.022.271.039.404.053a10.06 10.06 0 0 1-4.005.825 10.05 10.05 0 0 1-3.7-.699l2.27-2.27Z" fill="url(#d)"/></g><path d="M15.464 1.733a.5.5 0 0 1 .17.819l-2.27 2.271a.5.5 0 0 1-.629.065C11.07 3.795 9.407 3.108 7.901 2.87a7.611 7.611 0 0 0-.379-.05.5.5 0 0 1-.145-.956A10.556 10.556 0 0 1 11.58 1c1.35 0 2.662.252 3.884.733Zm.743.725a.5.5 0 0 1 .601-.081 10.634 10.634 0 0 1 2.254 1.722c.68.68 1.257 1.438 1.721 2.253a.5.5 0 0 1-.08.601L6.953 20.702a.5.5 0 0 1-.6.08 10.628 10.628 0 0 1-2.254-1.72 10.638 10.638 0 0 1-1.722-2.254.5.5 0 0 1 .08-.601l13.75-13.75Zm-3.898 2.557a.5.5 0 0 1 .086.777L9.566 8.62a.5.5 0 0 1-.707 0L4.638 4.398a.5.5 0 0 1 .106-.788c.608-.345 1.336-.495 2.123-.488l-.005.5.005-.5c1.602.016 3.53.686 5.442 1.893Zm-8.7-.271a.5.5 0 0 1 .79-.107L8.62 8.859a.5.5 0 0 1 0 .707l-2.829 2.829a.5.5 0 0 1-.776-.087c-.9-1.427-1.499-2.857-1.753-4.15-.253-1.286-.176-2.49.348-3.414ZM1.867 7.376a.5.5 0 0 1 .956.146c.013.125.03.25.05.378.236 1.507.923 3.17 2.016 4.835a.5.5 0 0 1-.065.628l-2.27 2.271a.5.5 0 0 1-.82-.17A10.572 10.572 0 0 1 1 11.58c0-1.469.298-2.893.866-4.204Zm18.742.15a.5.5 0 0 1 .819.17 10.58 10.58 0 0 1 .733 3.884c0 1.469-.298 2.893-.866 4.203a.5.5 0 0 1-.956-.145 7.682 7.682 0 0 0-.05-.379c-.236-1.506-.922-3.17-2.015-4.835a.5.5 0 0 1 .064-.628l2.271-2.27Zm-3.24 3.239a.5.5 0 0 1 .777.086c.9 1.427 1.499 2.857 1.753 4.151.253 1.286.176 2.49-.348 3.414a.5.5 0 0 1-.788.107L14.54 14.3a.5.5 0 0 1 0-.707l2.829-2.83Zm-3.775 3.775a.5.5 0 0 1 .707 0l4.222 4.221a.5.5 0 0 1-.106.789c-.924.524-2.128.6-3.414.348-1.294-.254-2.724-.852-4.15-1.753a.5.5 0 0 1-.087-.777l2.828-2.828Zm-3.796 3.797a.5.5 0 0 1 .628-.065c1.665 1.093 3.328 1.78 4.834 2.016.127.02.254.037.38.05a.5.5 0 0 1 .144.956 10.56 10.56 0 0 1-4.203.866 10.56 10.56 0 0 1-3.884-.734.5.5 0 0 1-.17-.819l2.27-2.27Zm7.388-12.123-.239-.24-.24.24.24.24.24-.24ZM13.608 9.79l-.239-.239-.24.24.24.239.24-.24Zm-3.577 3.577-.24-.239-.239.24.239.239.24-.24Zm-3.578 3.577-.239-.238-.24.24.24.238.24-.24Z" stroke="#422815" stroke-linejoin="round"/></g><path d="M15.464 1.733a.5.5 0 0 1 .17.819l-2.27 2.271a.5.5 0 0 1-.629.065C11.07 3.795 9.407 3.108 7.901 2.87a7.611 7.611 0 0 0-.379-.05.5.5 0 0 1-.145-.956A10.556 10.556 0 0 1 11.58 1c1.35 0 2.662.252 3.884.733Zm.743.725a.5.5 0 0 1 .601-.081 10.634 10.634 0 0 1 2.254 1.722c.68.68 1.257 1.438 1.721 2.253a.5.5 0 0 1-.08.601L6.953 20.702a.5.5 0 0 1-.6.08 10.628 10.628 0 0 1-2.254-1.72 10.638 10.638 0 0 1-1.722-2.254.5.5 0 0 1 .08-.601l13.75-13.75Zm-3.898 2.557a.5.5 0 0 1 .086.777L9.566 8.62a.5.5 0 0 1-.707 0L4.638 4.398a.5.5 0 0 1 .106-.788c.608-.345 1.336-.495 2.123-.488l-.005.5.005-.5c1.602.016 3.53.686 5.442 1.893Zm-8.7-.271a.5.5 0 0 1 .79-.107L8.62 8.859a.5.5 0 0 1 0 .707l-2.829 2.829a.5.5 0 0 1-.776-.087c-.9-1.427-1.499-2.857-1.753-4.15-.253-1.286-.176-2.49.348-3.414ZM1.867 7.376a.5.5 0 0 1 .956.146c.013.125.03.25.05.378.236 1.507.923 3.17 2.016 4.835a.5.5 0 0 1-.065.628l-2.27 2.271a.5.5 0 0 1-.82-.17A10.572 10.572 0 0 1 1 11.58c0-1.469.298-2.893.866-4.204Zm18.742.15a.5.5 0 0 1 .819.17 10.58 10.58 0 0 1 .733 3.884c0 1.469-.298 2.893-.866 4.203a.5.5 0 0 1-.956-.145 7.682 7.682 0 0 0-.05-.379c-.236-1.506-.922-3.17-2.015-4.835a.5.5 0 0 1 .064-.628l2.271-2.27Zm-3.24 3.239a.5.5 0 0 1 .777.086c.9 1.427 1.499 2.857 1.753 4.151.253 1.286.176 2.49-.348 3.414a.5.5 0 0 1-.788.107L14.54 14.3a.5.5 0 0 1 0-.707l2.829-2.83Zm-3.775 3.775a.5.5 0 0 1 .707 0l4.222 4.221a.5.5 0 0 1-.106.789c-.924.524-2.128.6-3.414.348-1.294-.254-2.724-.852-4.15-1.753a.5.5 0 0 1-.087-.777l2.828-2.828Zm-3.796 3.797a.5.5 0 0 1 .628-.065c1.665 1.093 3.328 1.78 4.834 2.016.127.02.254.037.38.05a.5.5 0 0 1 .144.956 10.56 10.56 0 0 1-4.203.866 10.56 10.56 0 0 1-3.884-.734.5.5 0 0 1-.17-.819l2.27-2.27Zm7.388-12.123-.239-.24-.24.24.24.24.24-.24ZM13.608 9.79l-.239-.239-.24.24.24.239.24-.24Zm-3.577 3.577-.24-.239-.239.24.239.239.24-.24Zm-3.578 3.577-.239-.238-.24.24.24.238.24-.24Z" stroke="#422815" stroke-linejoin="round"/><defs><linearGradient id="b" x1="11.58" y1="21.66" x2="11.58" y2="1.5" gradientUnits="userSpaceOnUse"><stop stop-color="#A47000"/><stop offset=".4" stop-color="#E8940E"/><stop offset=".6" stop-color="#F4C016"/><stop offset=".8" stop-color="#FEE923"/><stop offset="1" stop-color="#FFF17F"/></linearGradient><linearGradient id="d" x1="11.58" y1="1.5" x2="11.58" y2="21.66" gradientUnits="userSpaceOnUse"><stop stop-color="#9A3F19"/><stop offset="1" stop-color="#FF5620"/></linearGradient><filter id="a" x=".5" y=".5" width="22.66" height="22.66" filterUnits="userSpaceOnUse" color-interpolation-filters="sRGB"><feFlood flood-opacity="0" result="BackgroundImageFix"/><feBlend in="SourceGraphic" in2="BackgroundImageFix" result="shape"/><feColorMatrix in="SourceAlpha" values="0 0 0 0 0 0 0 0 0 0 0 0 0 0 0 0 0 0 127 0" result="hardAlpha"/><feOffset dx="1" dy="1.5"/><feGaussianBlur stdDeviation=".25"/><feComposite in2="hardAlpha" operator="arithmetic" k2="-1" k3="1"/><feColorMatrix values="0 0 0 0 0.976471 0 0 0 0 0.937255 0 0 0 0 0.784314 0 0 0 1 0"/><feBlend in2="shape" result="effect1_innerShadow_3193_176718"/></filter><filter id="c" x=".5" y=".5" width="22.66" height="22.66" filterUnits="userSpaceOnUse" color-interpolation-filters="sRGB"><feFlood flood-opacity="0" result="BackgroundImageFix"/><feBlend in="SourceGraphic" in2="BackgroundImageFix" result="shape"/><feColorMatrix in="SourceAlpha" values="0 0 0 0 0 0 0 0 0 0 0 0 0 0 0 0 0 0 127 0" result="hardAlpha"/><feOffset dx="1" dy="1.5"/><feGaussianBlur stdDeviation=".25"/><feComposite in2="hardAlpha" operator="arithmetic" k2="-1" k3="1"/><feColorMatrix values="0 0 0 0 0.976471 0 0 0 0 0.937255 0 0 0 0 0.784314 0 0 0 1 0"/><feBlend in2="shape" result="effect1_innerShadow_3193_176718"/></filter></defs></svg>