<svg viewBox="0 0 24 24" fill="none" xmlns="http://www.w3.org/2000/svg"><path d="M1.68 7.9A3.52 3.52 0 0 1 5.2 4.38h14.08A3.52 3.52 0 0 1 22.8 7.9v8.8a3.52 3.52 0 0 1-3.52 3.52H5.2a3.52 3.52 0 0 1-3.52-3.52V7.9Z" stroke="#422815" stroke-width="2"/><g filter="url(#a)"><path d="M.8 7.02A3.52 3.52 0 0 1 4.32 3.5H18.4a3.52 3.52 0 0 1 3.52 3.52v8.8a3.52 3.52 0 0 1-3.52 3.52H4.32A3.52 3.52 0 0 1 .8 15.82v-8.8Z" fill="url(#b)"/></g><path d="M.8 7.02A3.52 3.52 0 0 1 4.32 3.5H18.4a3.52 3.52 0 0 1 3.52 3.52v8.8a3.52 3.52 0 0 1-3.52 3.52H4.32A3.52 3.52 0 0 1 .8 15.82v-8.8Z" stroke="#422815"/><g style="mix-blend-mode:overlay"><g filter="url(#c)"><path d="M.8 7.02A3.52 3.52 0 0 1 4.32 3.5H18.4a3.52 3.52 0 0 1 3.52 3.52v8.8a3.52 3.52 0 0 1-3.52 3.52H4.32A3.52 3.52 0 0 1 .8 15.82v-8.8Z" fill="url(#d)"/></g><path d="M.8 7.02A3.52 3.52 0 0 1 4.32 3.5H18.4a3.52 3.52 0 0 1 3.52 3.52v8.8a3.52 3.52 0 0 1-3.52 3.52H4.32A3.52 3.52 0 0 1 .8 15.82v-8.8Z" stroke="#422815"/></g><path d="M.8 7.02A3.52 3.52 0 0 1 4.32 3.5H18.4a3.52 3.52 0 0 1 3.52 3.52v8.8a3.52 3.52 0 0 1-3.52 3.52H4.32A3.52 3.52 0 0 1 .8 15.82v-8.8Z" stroke="#422815"/><path d="M2.648 14.43V8.34h1.288v5.028h2.61v1.062H2.649Zm6.039-6.09v6.09H7.399V8.34h1.288Zm2.159 0 1.472 4.627h.057L13.85 8.34h1.427l-2.1 6.09h-1.659L9.416 8.34h1.43Zm5.164 6.09V8.34h4.103V9.4h-2.816v1.451h2.605v1.062h-2.605v1.454h2.828v1.062H16.01Z" fill="#422815"/><defs><linearGradient id="b" x1="11.361" y1="19.34" x2="11.361" y2="3.5" gradientUnits="userSpaceOnUse"><stop stop-color="#A47000"/><stop offset=".4" stop-color="#E8940E"/><stop offset=".6" stop-color="#F4C016"/><stop offset=".8" stop-color="#FEE923"/><stop offset="1" stop-color="#FFF17F"/></linearGradient><linearGradient id="d" x1="11.361" y1="3.5" x2="11.361" y2="19.34" gradientUnits="userSpaceOnUse"><stop stop-color="#9A3F19"/><stop offset="1" stop-color="#FF5620"/></linearGradient><filter id="a" x=".301" y="3" width="22.62" height="17.34" filterUnits="userSpaceOnUse" color-interpolation-filters="sRGB"><feFlood flood-opacity="0" result="BackgroundImageFix"/><feBlend in="SourceGraphic" in2="BackgroundImageFix" result="shape"/><feColorMatrix in="SourceAlpha" values="0 0 0 0 0 0 0 0 0 0 0 0 0 0 0 0 0 0 127 0" result="hardAlpha"/><feOffset dx="1" dy="1.5"/><feGaussianBlur stdDeviation=".25"/><feComposite in2="hardAlpha" operator="arithmetic" k2="-1" k3="1"/><feColorMatrix values="0 0 0 0 0.976471 0 0 0 0 0.937255 0 0 0 0 0.784314 0 0 0 1 0"/><feBlend in2="shape" result="effect1_innerShadow_3193_176721"/></filter><filter id="c" x=".301" y="3" width="22.62" height="17.34" filterUnits="userSpaceOnUse" color-interpolation-filters="sRGB"><feFlood flood-opacity="0" result="BackgroundImageFix"/><feBlend in="SourceGraphic" in2="BackgroundImageFix" result="shape"/><feColorMatrix in="SourceAlpha" values="0 0 0 0 0 0 0 0 0 0 0 0 0 0 0 0 0 0 127 0" result="hardAlpha"/><feOffset dx="1" dy="1.5"/><feGaussianBlur stdDeviation=".25"/><feComposite in2="hardAlpha" operator="arithmetic" k2="-1" k3="1"/><feColorMatrix values="0 0 0 0 0.976471 0 0 0 0 0.937255 0 0 0 0 0.784314 0 0 0 1 0"/><feBlend in2="shape" result="effect1_innerShadow_3193_176721"/></filter></defs></svg>