<svg viewBox="0 0 24 24" fill="none" xmlns="http://www.w3.org/2000/svg"><path d="M13.823 18.74c.575.837 2.024 3.662 3.203 3.833 1.672.259 2.35-3.45 2.35-3.45s3.726.68 4.081-.976c.113-.533-1.177-2.38-2.37-4.092-.16-.227-.317-.453-.469-.673l-.247-.35c.196-.85.293-1.72.287-2.593 0-2.512-.702-4.618-2.105-6.095-1.379-1.848-3.65-2.932-6.809-2.932-5.592 0-8.437 3.397-8.437 8.42-.006.888.09 1.773.287 2.639l-.213.304-.468.673C1.72 15.162.43 17.008.542 17.541c.38 1.764 2.834 1.817 4.235 1.637.275 1.025 1.244 3.636 2.707 3.396.541-.077 1.75-1.842 2.901-3.527l.215-.313c1.07.143 2.153.145 3.223.006Z" fill="#422815" stroke="#422815" stroke-miterlimit="10"/><g filter="url(#a)"><path d="m20.108 12.775-.247-.35c.196-.85.293-1.72.287-2.592 0-5.024-2.81-8.42-8.403-8.42s-8.438 3.396-8.438 8.42c-.005.887.091 1.772.287 2.638l-.212.304C2.089 14.643.417 16.938.542 17.541c.356 1.655 4.081.977 4.081.977s.679 3.724 2.351 3.449c.575-.081 1.903-2.07 3.116-3.84 1.098.147 2.212.145 3.31-.006 1.213 1.77 2.558 3.765 3.115 3.846 1.673.258 2.351-3.45 2.351-3.45s3.725.679 4.081-.976c.127-.604-1.546-2.898-2.84-4.765h.001Z" fill="url(#b)"/></g><path d="m20.108 12.775-.247-.35c.196-.85.293-1.72.287-2.592 0-5.024-2.81-8.42-8.403-8.42s-8.438 3.396-8.438 8.42c-.005.887.091 1.772.287 2.638l-.212.304C2.089 14.643.417 16.938.542 17.541c.356 1.655 4.081.977 4.081.977s.679 3.724 2.351 3.449c.575-.081 1.903-2.07 3.116-3.84 1.098.147 2.212.145 3.31-.006 1.213 1.77 2.558 3.765 3.115 3.846 1.673.258 2.351-3.45 2.351-3.45s3.725.679 4.081-.976c.127-.604-1.546-2.898-2.84-4.765h.001Z" stroke="#422815" stroke-miterlimit="10"/><g style="mix-blend-mode:overlay"><g filter="url(#c)"><path d="m20.108 12.775-.247-.35c.196-.85.293-1.72.287-2.592 0-5.024-2.81-8.42-8.403-8.42s-8.438 3.396-8.438 8.42c-.005.887.091 1.772.287 2.638l-.212.304C2.089 14.643.417 16.938.542 17.541c.356 1.655 4.081.977 4.081.977s.679 3.724 2.351 3.449c.575-.081 1.903-2.07 3.116-3.84 1.098.147 2.212.145 3.31-.006 1.213 1.77 2.558 3.765 3.115 3.846 1.673.258 2.351-3.45 2.351-3.45s3.725.679 4.081-.976c.127-.604-1.546-2.898-2.84-4.765h.001Z" fill="url(#d)"/></g><path d="m20.108 12.775-.247-.35c.196-.85.293-1.72.287-2.592 0-5.024-2.81-8.42-8.403-8.42s-8.438 3.396-8.438 8.42c-.005.887.091 1.772.287 2.638l-.212.304C2.089 14.643.417 16.938.542 17.541c.356 1.655 4.081.977 4.081.977s.679 3.724 2.351 3.449c.575-.081 1.903-2.07 3.116-3.84 1.098.147 2.212.145 3.31-.006 1.213 1.77 2.558 3.765 3.115 3.846 1.673.258 2.351-3.45 2.351-3.45s3.725.679 4.081-.976c.127-.604-1.546-2.898-2.84-4.765h.001Z" stroke="#422815" stroke-miterlimit="10"/></g><path d="m20.108 12.775-.247-.35c.196-.85.293-1.72.287-2.592 0-5.024-2.81-8.42-8.403-8.42s-8.438 3.396-8.438 8.42c-.005.887.091 1.772.287 2.638l-.212.304C2.089 14.643.417 16.938.542 17.541c.356 1.655 4.081.977 4.081.977s.679 3.724 2.351 3.449c.575-.081 1.903-2.07 3.116-3.84 1.098.147 2.212.145 3.31-.006 1.213 1.77 2.558 3.765 3.115 3.846 1.673.258 2.351-3.45 2.351-3.45s3.725.679 4.081-.976c.127-.604-1.546-2.898-2.84-4.765h.001Z" stroke="#422815" stroke-miterlimit="10"/><path d="M11.729 14.51c3.601.04 5.896-3.833 4.13-6.973a4.679 4.679 0 0 0-4.13-2.384c-3.602 0-5.853 3.899-4.052 7.018a4.678 4.678 0 0 0 4.052 2.339Z" fill="#F9EFC8" stroke="#422815" stroke-miterlimit="10"/><path d="M4.996 14.338c.5 1.018 2.248 2.3 2.989 2.604m10.478-2.604c-.505 1.018-2.253 2.3-2.994 2.604" stroke="#422815" stroke-miterlimit="10" stroke-linecap="round"/><path d="M13.514 8.902c-.19-.09-.39-.155-.595-.194a3.217 3.217 0 0 0-.469-.057 2.855 2.855 0 0 0-.194-.4 2.507 2.507 0 0 0-.364-.508.24.24 0 0 0-.329 0 2.542 2.542 0 0 0-.364.512 3.37 3.37 0 0 0-.188.401 2.845 2.845 0 0 0-.443.06 2.54 2.54 0 0 0-.596.189.242.242 0 0 0-.097.313c.102.182.226.352.37.504.103.11.212.212.328.308a2.848 2.848 0 0 0-.092.47 2.508 2.508 0 0 0 0 .625.241.241 0 0 0 .266.194 2.53 2.53 0 0 0 .593-.194c.134-.064.264-.136.389-.216.124.08.254.152.388.216.189.089.388.154.593.194a.241.241 0 0 0 .266-.194 2.509 2.509 0 0 0 0-.625 2.944 2.944 0 0 0-.083-.451c.127-.1.245-.21.352-.331a2.61 2.61 0 0 0 .371-.504.24.24 0 0 0-.102-.312Z" fill="#FFF17F" stroke="#422815" stroke-miterlimit="10"/><defs><linearGradient id="b" x1="11.745" y1="21.981" x2="11.745" y2="1.412" gradientUnits="userSpaceOnUse"><stop stop-color="#A47000"/><stop offset=".4" stop-color="#E8940E"/><stop offset=".6" stop-color="#F4C016"/><stop offset=".8" stop-color="#FEE923"/><stop offset="1" stop-color="#FFF17F"/></linearGradient><linearGradient id="d" x1="11.745" y1="1.412" x2="11.745" y2="21.981" gradientUnits="userSpaceOnUse"><stop stop-color="#9A3F19"/><stop offset="1" stop-color="#FF5620"/></linearGradient><filter id="a" x=".035" y=".912" width="23.919" height="22.069" filterUnits="userSpaceOnUse" color-interpolation-filters="sRGB"><feFlood flood-opacity="0" result="BackgroundImageFix"/><feBlend in="SourceGraphic" in2="BackgroundImageFix" result="shape"/><feColorMatrix in="SourceAlpha" values="0 0 0 0 0 0 0 0 0 0 0 0 0 0 0 0 0 0 127 0" result="hardAlpha"/><feOffset dx="1" dy="1.5"/><feGaussianBlur stdDeviation=".25"/><feComposite in2="hardAlpha" operator="arithmetic" k2="-1" k3="1"/><feColorMatrix values="0 0 0 0 0.976471 0 0 0 0 0.937255 0 0 0 0 0.784314 0 0 0 1 0"/><feBlend in2="shape" result="effect1_innerShadow_3193_176727"/></filter><filter id="c" x=".035" y=".912" width="23.919" height="22.069" filterUnits="userSpaceOnUse" color-interpolation-filters="sRGB"><feFlood flood-opacity="0" result="BackgroundImageFix"/><feBlend in="SourceGraphic" in2="BackgroundImageFix" result="shape"/><feColorMatrix in="SourceAlpha" values="0 0 0 0 0 0 0 0 0 0 0 0 0 0 0 0 0 0 127 0" result="hardAlpha"/><feOffset dx="1" dy="1.5"/><feGaussianBlur stdDeviation=".25"/><feComposite in2="hardAlpha" operator="arithmetic" k2="-1" k3="1"/><feColorMatrix values="0 0 0 0 0.976471 0 0 0 0 0.937255 0 0 0 0 0.784314 0 0 0 1 0"/><feBlend in2="shape" result="effect1_innerShadow_3193_176727"/></filter></defs></svg>