<svg viewBox="0 0 26 24" fill="none" xmlns="http://www.w3.org/2000/svg"><path d="M16.202 18.81c.096-.9.13-1.807.104-2.713v-.187a7.007 7.007 0 0 0 3.095-2.475c3.504-.03 5.255-2.715 5.255-6.733 0-1.345-2.06-1.998-3.066-2.136-.504-3.418-6.61-3.194-8.903-3.194-5.564 0-8.35.888-8.35 2.78v.35c-2.02.192-3.036.69-3.036 1.518 0 3.463 1.89 7.362 5.798 7.414.05.055.1.11.151.163a7.054 7.054 0 0 0 2.402 2.049c-.017.964.036 1.93.156 2.887-1.605.584-2.429 1.752-2.429 3.218 0 1.879 4.96 1.558 5.891 1.558 3.562 0 5.314-.28 5.314-.876 0-1.465-1.108-2.944-2.382-3.622Z" fill="#422815" stroke="#422815" stroke-miterlimit="10"/><g filter="url(#a)"><path d="M18.824 12.754c3.504-.03 5.255-2.716 5.255-6.733 0-.829-1.016-1.326-3.048-1.518v-.35c.006-1.893-2.779-2.78-8.344-2.78-5.564 0-8.35.888-8.35 2.78v.35c-2.02.192-3.036.689-3.036 1.518 0 4.017 1.752 6.703 5.255 6.733a7.053 7.053 0 0 0 3.1 2.481v.181a20.21 20.21 0 0 0 .152 3.118c-1.605.584-2.429 1.752-2.429 3.217 0 .585 1.752.876 5.314.876 3.562 0 5.314-.28 5.314-.876 0-1.488-.824-2.627-2.43-3.217.132-1.034.183-2.076.153-3.118v-.187a7.006 7.006 0 0 0 3.094-2.476Z" fill="url(#b)"/></g><path d="M18.824 12.754c3.504-.03 5.255-2.716 5.255-6.733 0-.829-1.016-1.326-3.048-1.518v-.35c.006-1.893-2.779-2.78-8.344-2.78-5.564 0-8.35.888-8.35 2.78v.35c-2.02.192-3.036.689-3.036 1.518 0 4.017 1.752 6.703 5.255 6.733a7.053 7.053 0 0 0 3.1 2.481v.181a20.21 20.21 0 0 0 .152 3.118c-1.605.584-2.429 1.752-2.429 3.217 0 .585 1.752.876 5.314.876 3.562 0 5.314-.28 5.314-.876 0-1.488-.824-2.627-2.43-3.217.132-1.034.183-2.076.153-3.118v-.187a7.006 7.006 0 0 0 3.094-2.476Z" stroke="#422815" stroke-miterlimit="10"/><g style="mix-blend-mode:overlay"><g filter="url(#c)"><path d="M18.824 12.754c3.504-.03 5.255-2.716 5.255-6.733 0-.829-1.016-1.326-3.048-1.518v-.35c.006-1.893-2.779-2.78-8.344-2.78-5.564 0-8.35.888-8.35 2.78v.35c-2.02.192-3.036.689-3.036 1.518 0 4.017 1.752 6.703 5.255 6.733a7.053 7.053 0 0 0 3.1 2.481v.181a20.21 20.21 0 0 0 .152 3.118c-1.605.584-2.429 1.752-2.429 3.217 0 .585 1.752.876 5.314.876 3.562 0 5.314-.28 5.314-.876 0-1.488-.824-2.627-2.43-3.217.132-1.034.183-2.076.153-3.118v-.187a7.006 7.006 0 0 0 3.094-2.476Z" fill="url(#d)"/></g><path d="M18.824 12.754c3.504-.03 5.255-2.716 5.255-6.733 0-.829-1.016-1.326-3.048-1.518v-.35c.006-1.893-2.779-2.78-8.344-2.78-5.564 0-8.35.888-8.35 2.78v.35c-2.02.192-3.036.689-3.036 1.518 0 4.017 1.752 6.703 5.255 6.733a7.053 7.053 0 0 0 3.1 2.481v.181a20.21 20.21 0 0 0 .152 3.118c-1.605.584-2.429 1.752-2.429 3.217 0 .585 1.752.876 5.314.876 3.562 0 5.314-.28 5.314-.876 0-1.488-.824-2.627-2.43-3.217.132-1.034.183-2.076.153-3.118v-.187a7.006 7.006 0 0 0 3.094-2.476Z" stroke="#422815" stroke-miterlimit="10"/></g><path d="M18.824 12.754c3.504-.03 5.255-2.716 5.255-6.733 0-.829-1.016-1.326-3.048-1.518v-.35c.006-1.893-2.779-2.78-8.344-2.78-5.564 0-8.35.888-8.35 2.78v.35c-2.02.192-3.036.689-3.036 1.518 0 4.017 1.752 6.703 5.255 6.733a7.053 7.053 0 0 0 3.1 2.481v.181a20.21 20.21 0 0 0 .152 3.118c-1.605.584-2.429 1.752-2.429 3.217 0 .585 1.752.876 5.314.876 3.562 0 5.314-.28 5.314-.876 0-1.488-.824-2.627-2.43-3.217.132-1.034.183-2.076.153-3.118v-.187a7.006 7.006 0 0 0 3.094-2.476Z" stroke="#422815" stroke-miterlimit="10"/><path d="M5.094 6.686c.093 1.291.348 2.566.759 3.795m14.426-3.795a15.441 15.441 0 0 1-.76 3.795" stroke="#422815" stroke-miterlimit="10" stroke-linecap="round"/><path d="M15.697 6.875a3.942 3.942 0 0 0-.943-.307 5.1 5.1 0 0 0-.743-.091 4.524 4.524 0 0 0-.307-.632 3.97 3.97 0 0 0-.577-.807.38.38 0 0 0-.52 0 4.023 4.023 0 0 0-.577.813 5.353 5.353 0 0 0-.299.635c-.236.013-.47.044-.701.094-.326.06-.643.161-.945.3a.383.383 0 0 0-.154.495c.162.29.359.558.587.799.162.173.336.336.52.487-.07.245-.12.494-.147.747-.04.328-.04.66 0 .989a.382.382 0 0 0 .422.307c.325-.063.64-.166.94-.307.212-.101.417-.215.615-.342.198.127.403.242.616.342.299.141.615.244.94.307a.382.382 0 0 0 .421-.307 4 4 0 0 0 0-.99 4.657 4.657 0 0 0-.132-.715c.201-.158.388-.333.558-.524.228-.242.425-.51.588-.799a.38.38 0 0 0-.162-.494Z" fill="#F9EFC8" stroke="#422815" stroke-miterlimit="10"/><defs><linearGradient id="b" x1="12.69" y1="22.627" x2="12.69" y2="1.373" gradientUnits="userSpaceOnUse"><stop stop-color="#A47000"/><stop offset=".4" stop-color="#E8940E"/><stop offset=".6" stop-color="#F4C016"/><stop offset=".8" stop-color="#FEE923"/><stop offset="1" stop-color="#FFF17F"/></linearGradient><linearGradient id="d" x1="12.69" y1="1.373" x2="12.69" y2="22.627" gradientUnits="userSpaceOnUse"><stop stop-color="#9A3F19"/><stop offset="1" stop-color="#FF5620"/></linearGradient><filter id="a" x=".801" y=".873" width="24.278" height="22.754" filterUnits="userSpaceOnUse" color-interpolation-filters="sRGB"><feFlood flood-opacity="0" result="BackgroundImageFix"/><feBlend in="SourceGraphic" in2="BackgroundImageFix" result="shape"/><feColorMatrix in="SourceAlpha" values="0 0 0 0 0 0 0 0 0 0 0 0 0 0 0 0 0 0 127 0" result="hardAlpha"/><feOffset dx="1" dy="1.5"/><feGaussianBlur stdDeviation=".25"/><feComposite in2="hardAlpha" operator="arithmetic" k2="-1" k3="1"/><feColorMatrix values="0 0 0 0 0.976471 0 0 0 0 0.937255 0 0 0 0 0.784314 0 0 0 1 0"/><feBlend in2="shape" result="effect1_innerShadow_3193_176730"/></filter><filter id="c" x=".801" y=".873" width="24.278" height="22.754" filterUnits="userSpaceOnUse" color-interpolation-filters="sRGB"><feFlood flood-opacity="0" result="BackgroundImageFix"/><feBlend in="SourceGraphic" in2="BackgroundImageFix" result="shape"/><feColorMatrix in="SourceAlpha" values="0 0 0 0 0 0 0 0 0 0 0 0 0 0 0 0 0 0 127 0" result="hardAlpha"/><feOffset dx="1" dy="1.5"/><feGaussianBlur stdDeviation=".25"/><feComposite in2="hardAlpha" operator="arithmetic" k2="-1" k3="1"/><feColorMatrix values="0 0 0 0 0.976471 0 0 0 0 0.937255 0 0 0 0 0.784314 0 0 0 1 0"/><feBlend in2="shape" result="effect1_innerShadow_3193_176730"/></filter></defs></svg>