<svg width="70" height="24" viewBox="0 0 70 24" fill="none" xmlns="http://www.w3.org/2000/svg">
<path d="M15.8805 8.08563H11.2029V16.4914H15.8805V8.08563Z" fill="#FF5F00"/>
<path d="M11.4991 12.288C11.4984 11.4785 11.6819 10.6794 12.0356 9.95128C12.3893 9.22312 12.9041 8.58499 13.5409 8.08519C12.7523 7.46532 11.8052 7.07984 10.8079 6.97279C9.81053 6.86575 8.80319 7.04146 7.90099 7.47985C6.99879 7.91824 6.23814 8.60163 5.70597 9.45189C5.1738 10.3021 4.89159 11.285 4.89159 12.288C4.89159 13.2911 5.1738 14.2739 5.70597 15.1242C6.23814 15.9744 6.99879 16.6578 7.90099 17.0962C8.80319 17.5346 9.81053 17.7103 10.8079 17.6033C11.8052 17.4962 12.7523 17.1108 13.5409 16.4909C12.9041 15.9911 12.3893 15.3529 12.0356 14.6248C11.6819 13.8966 11.4984 13.0976 11.4991 12.288Z" fill="#EB001B"/>
<path d="M22.1912 12.2882C22.1913 13.2912 21.9091 14.2741 21.3769 15.1243C20.8448 15.9746 20.0842 16.658 19.182 17.0964C18.2798 17.5348 17.2725 17.7105 16.2752 17.6034C15.2778 17.4964 14.3307 17.1109 13.5421 16.491C14.1784 15.9907 14.6928 15.3525 15.0465 14.6245C15.4001 13.8964 15.5839 13.0976 15.5839 12.2882C15.5839 11.4788 15.4001 10.6799 15.0465 9.95189C14.6928 9.22385 14.1784 8.58562 13.5421 8.08531C14.3307 7.46544 15.2778 7.07996 16.2752 6.97291C17.2725 6.86587 18.2798 7.04159 19.182 7.47999C20.0842 7.91838 20.8448 8.60177 21.3769 9.45203C21.9091 10.3023 22.1913 11.2851 22.1912 12.2882Z" fill="#F79E1B"/>
<path d="M31.5343 14.195V11.9494C31.5343 11.0905 31.0111 10.528 30.1129 10.528C29.6637 10.528 29.1754 10.6762 28.8397 11.1646C28.578 10.7547 28.2031 10.528 27.6406 10.528C27.2656 10.528 26.8906 10.6414 26.5941 11.0512V10.6021H25.8093V14.195H26.5941V12.2111C26.5941 11.5745 26.9299 11.2736 27.4531 11.2736C27.9763 11.2736 28.2379 11.6093 28.2379 12.2111V14.195H29.0228V12.2111C29.0228 11.5745 29.3978 11.2736 29.8818 11.2736C30.405 11.2736 30.6666 11.6093 30.6666 12.2111V14.195H31.5343ZM43.1762 10.6021H41.903V9.51641H41.1182V10.6021H40.4075V11.3128H41.1182V12.961C41.1182 13.7851 41.4539 14.2691 42.3521 14.2691C42.6879 14.2691 43.0629 14.1557 43.3245 14.0075L43.0977 13.3316C42.871 13.4799 42.6094 13.5191 42.4219 13.5191C42.0469 13.5191 41.8987 13.2924 41.8987 12.9218V11.3128H43.1719V10.6021H43.1762ZM49.8387 10.5236C49.3896 10.5236 49.0888 10.7504 48.9013 11.0469V10.5978H48.1164V14.1906H48.9013V12.1675C48.9013 11.5701 49.1629 11.23 49.6512 11.23C49.7995 11.23 49.987 11.2692 50.1396 11.3041L50.3663 10.5541C50.2093 10.5236 49.987 10.5236 49.8387 10.5236ZM39.7709 10.8986C39.3959 10.637 38.8726 10.5236 38.3102 10.5236C37.412 10.5236 36.8146 10.9727 36.8146 11.6835C36.8146 12.2808 37.2637 12.6209 38.0486 12.7299L38.4235 12.7692C38.8334 12.8433 39.0601 12.9567 39.0601 13.1442C39.0601 13.4058 38.7593 13.5933 38.236 13.5933C37.7128 13.5933 37.2986 13.4058 37.037 13.2183L36.662 13.8156C37.0718 14.1165 37.6343 14.2647 38.1968 14.2647C39.2433 14.2647 39.845 13.7764 39.845 13.1049C39.845 12.4683 39.3566 12.1326 38.611 12.0192L38.236 11.98C37.9003 11.9407 37.6387 11.8666 37.6387 11.6442C37.6387 11.3826 37.9003 11.2344 38.3145 11.2344C38.7636 11.2344 39.2127 11.4218 39.4395 11.5352L39.7709 10.8986ZM60.6522 10.5236C60.2031 10.5236 59.9022 10.7504 59.7147 11.0469V10.5978H58.9299V14.1906H59.7147V12.1675C59.7147 11.5701 59.9764 11.23 60.4647 11.23C60.613 11.23 60.8005 11.2692 60.9531 11.3041L61.1798 10.5629C61.0272 10.5236 60.8048 10.5236 60.6522 10.5236ZM50.6236 12.3985C50.6236 13.4843 51.3735 14.2691 52.5334 14.2691C53.0566 14.2691 53.4316 14.1557 53.8066 13.8592L53.4316 13.2226C53.1307 13.4494 52.8342 13.5584 52.4941 13.5584C51.8575 13.5584 51.4084 13.1093 51.4084 12.3985C51.4084 11.7227 51.8575 11.2736 52.4941 11.2387C52.8299 11.2387 53.1307 11.3521 53.4316 11.5745L53.8066 10.9379C53.4316 10.637 53.0566 10.528 52.5334 10.528C51.3735 10.5236 50.6236 11.3128 50.6236 12.3985ZM57.8834 12.3985V10.6021H57.0986V11.0512C56.837 10.7155 56.462 10.528 55.9736 10.528C54.962 10.528 54.1772 11.3128 54.1772 12.3985C54.1772 13.4843 54.962 14.2691 55.9736 14.2691C56.4969 14.2691 56.8718 14.0816 57.0986 13.7459V14.195H57.8834V12.3985ZM55.0013 12.3985C55.0013 11.7619 55.4112 11.2387 56.087 11.2387C56.7236 11.2387 57.1727 11.7271 57.1727 12.3985C57.1727 13.0351 56.7236 13.5584 56.087 13.5584C55.4155 13.5191 55.0013 13.0308 55.0013 12.3985ZM45.6093 10.5236C44.5628 10.5236 43.8128 11.2736 43.8128 12.3942C43.8128 13.5191 44.5628 14.2647 45.6485 14.2647C46.1717 14.2647 46.695 14.1165 47.1092 13.7764L46.7342 13.2139C46.4334 13.4407 46.0584 13.5889 45.6877 13.5889C45.1994 13.5889 44.7154 13.3622 44.602 12.7299H47.2574C47.2574 12.6166 47.2574 12.5424 47.2574 12.4291C47.2923 11.2736 46.6165 10.5236 45.6093 10.5236ZM45.6093 11.1995C46.0976 11.1995 46.4334 11.5003 46.5075 12.0584H44.6369C44.711 11.5745 45.0468 11.1995 45.6093 11.1995ZM65.1084 12.3985V9.18066H64.3236V11.0512C64.0619 10.7155 63.687 10.528 63.1986 10.528C62.187 10.528 61.4022 11.3128 61.4022 12.3985C61.4022 13.4843 62.187 14.2691 63.1986 14.2691C63.7218 14.2691 64.0968 14.0816 64.3236 13.7459V14.195H65.1084V12.3985ZM62.2263 12.3985C62.2263 11.7619 62.6361 11.2387 63.312 11.2387C63.9486 11.2387 64.3977 11.7271 64.3977 12.3985C64.3977 13.0351 63.9486 13.5584 63.312 13.5584C62.6361 13.5191 62.2263 13.0308 62.2263 12.3985ZM35.9513 12.3985V10.6021H35.1664V11.0512C34.9048 10.7155 34.5298 10.528 34.0415 10.528C33.0299 10.528 32.245 11.3128 32.245 12.3985C32.245 13.4843 33.0299 14.2691 34.0415 14.2691C34.5647 14.2691 34.9397 14.0816 35.1664 13.7459V14.195H35.9513V12.3985ZM33.0342 12.3985C33.0342 11.7619 33.4441 11.2387 34.1199 11.2387C34.7565 11.2387 35.2057 11.7271 35.2057 12.3985C35.2057 13.0351 34.7565 13.5584 34.1199 13.5584C33.4441 13.5191 33.0342 13.0308 33.0342 12.3985Z" fill="#050500"/>
</svg>
