<svg viewBox="0 0 18 18" fill="none" xmlns="http://www.w3.org/2000/svg"><path d="M3.265 3.26c2.9-2.889 6.075-2.6 8.68 0 .185.187.382.362.569.548 2.2 2.205 2.74 4.823 1.106 7.328.154.116.315.24.485.377 1.37 1.085 3.706 2.91 2.018 4.596-1.668 1.668-3.543-.645-4.614-2.004a36.403 36.403 0 0 1-.382-.493c-2.496 1.608-5.1 1.065-7.293-1.128-.186-.186-.383-.361-.57-.547-2.6-2.6-2.9-5.787 0-8.677v0Z" fill="#502C15" stroke="#502C15" stroke-miterlimit="10" stroke-linecap="round" stroke-linejoin="round"/><path d="M12 3.262c-2.604-2.6-6.1-2.89-9 0C.099 6.15.664 9.337 3.264 11.937c2.231 2.23 4.867 2.774 7.402 1.064.223.354.511.681.842 1.105 2.409 3.055 3.399 2.103 4.046 1.456.647-.647 1.594-1.637-1.449-4.049-.416-.33-.77-.597-1.12-.824 1.713-2.535 1.619-4.827-.985-7.427Z" fill="#F4C016" stroke="#502C15" stroke-miterlimit="10" stroke-linecap="round" stroke-linejoin="round"/><path d="M7.606 11.447a3.85 3.85 0 1 0 0-7.697 3.85 3.85 0 0 0 0 7.697v0Z" fill="#F9EFC8" stroke="#502C15" stroke-miterlimit="10" stroke-linecap="round" stroke-linejoin="round"/><path d="M6.708 5.245a1.44 1.44 0 0 1 1.814-.061" fill="#F9EFC8"/><path d="M6.708 5.245a1.44 1.44 0 0 1 1.814-.061" stroke="#502C15" stroke-miterlimit="10" stroke-linecap="round" stroke-linejoin="round"/></svg>