<svg width="70" height="24" viewBox="0 0 70 24" fill="none" xmlns="http://www.w3.org/2000/svg">
<path d="M54.0697 17.479C53.1174 17.479 52.1651 17.479 51.1986 17.479C51.0935 17.0248 50.9808 16.5806 50.8919 16.1325C50.855 15.9466 50.7889 15.8744 50.5582 15.8771C49.4069 15.8904 48.2553 15.8872 47.104 15.8789C46.9297 15.8777 46.8604 15.9295 46.8074 16.0723C46.6488 16.4993 46.4754 16.9219 46.2979 17.3429C46.2738 17.4 46.1939 17.4784 46.1393 17.4788C45.1015 17.487 44.0636 17.4848 42.9959 17.4848C43.1905 17.0633 43.3747 16.6608 43.5618 16.2594C44.8999 13.3874 46.2385 10.5156 47.577 7.64376C47.8669 7.02176 48.3015 6.7613 49.0491 6.76126C49.8823 6.76121 50.7154 6.76124 51.5699 6.76124C51.6532 7.11138 51.737 7.4564 51.8173 7.8021C52.4757 10.6402 53.1327 13.4787 53.7927 16.3165C53.8772 16.6801 53.977 17.0407 54.0697 17.4027C54.0697 17.4281 54.0697 17.4535 54.0697 17.479ZM50.312 13.6704C50.006 12.3506 49.7041 11.0487 49.4023 9.74669C49.3899 9.74452 49.3776 9.74234 49.3653 9.74017C48.8393 11.0454 48.3133 12.3507 47.7814 13.6704C48.6404 13.6704 49.4629 13.6704 50.312 13.6704Z" fill="#195A38"/>
<path d="M41.5619 6.57037C41.9408 6.63366 42.3225 6.6857 42.6977 6.76355C43.0401 6.83459 43.3753 6.9336 43.7391 7.02683C43.5557 7.79831 43.3767 8.55129 43.2016 9.28804C42.7216 9.1614 42.2627 9.01558 41.7911 8.92194C41.146 8.79385 40.4851 8.74504 39.8397 8.90681C39.5774 8.97257 39.3119 9.09884 39.1054 9.25803C38.7511 9.53106 38.7464 9.92412 39.0847 10.2108C39.318 10.4084 39.5946 10.5707 39.8709 10.7202C40.4991 11.06 41.1587 11.3556 41.7692 11.7186C42.4882 12.1461 43.0126 12.7338 43.1227 13.5285C43.3174 14.9341 42.7396 16.0413 41.4272 16.8245C40.6018 17.317 39.6679 17.537 38.6947 17.6185C37.3359 17.7323 36.0039 17.5953 34.7056 17.2117C34.6186 17.1859 34.5338 17.1538 34.4489 17.1226C34.4236 17.1132 34.4016 17.0967 34.3628 17.075C34.5462 16.3023 34.7299 15.5285 34.9187 14.7331C35.14 14.82 35.3478 14.9071 35.5601 14.9841C36.5744 15.3517 37.622 15.5199 38.7077 15.337C38.9901 15.2894 39.2782 15.1772 39.5176 15.0328C40.0371 14.7195 40.087 14.1307 39.6139 13.7627C39.303 13.5208 38.9292 13.3422 38.5749 13.148C38.0216 12.8448 37.4338 12.5864 36.9102 12.2471C36.2389 11.812 35.7528 11.232 35.6607 10.4611C35.5227 9.30686 35.9988 8.36963 36.9838 7.64138C37.8407 7.00774 38.8581 6.72653 39.9421 6.60844C40.0023 6.60187 40.0609 6.58334 40.1203 6.57037C40.6008 6.57037 41.0814 6.57037 41.5619 6.57037Z" fill="#195A38"/>
<path d="M30.3968 6.76996C30.2355 7.11911 30.0828 7.452 29.928 7.78411C28.4504 10.9552 26.9709 14.1255 25.4993 17.2988C25.4292 17.45 25.3434 17.4897 25.173 17.4885C24.2403 17.4815 23.3075 17.4787 22.375 17.4903C22.1773 17.4928 22.1129 17.4304 22.0674 17.2709C21.2767 14.4991 20.4729 11.7304 19.6912 8.95661C19.5478 8.44773 19.2607 8.10017 18.7222 7.88687C17.8591 7.54497 16.9632 7.30479 16.0493 7.10957C16.0089 7.10093 15.9687 7.09148 15.9307 7.08295C15.9352 6.76125 15.9352 6.76124 16.2753 6.76123C17.9075 6.76123 19.5397 6.7609 21.1719 6.76138C21.946 6.76161 22.5048 7.16615 22.6512 7.85547C23.0655 9.80686 23.4711 11.7598 23.8803 13.712C23.8982 13.7974 23.9186 13.8824 23.9457 14.0026C23.988 13.931 24.0176 13.8908 24.0369 13.847C25.0506 11.5404 26.0647 9.23391 27.0732 6.9255C27.1283 6.79949 27.1961 6.75674 27.3474 6.75783C28.2941 6.76458 29.241 6.76109 30.1878 6.76156C30.249 6.7616 30.3102 6.76635 30.3968 6.76996Z" fill="#195A38"/>
<path d="M29.1608 17.4852C30.0134 13.9004 30.8601 10.3409 31.7089 6.77271C32.7413 6.77271 33.7616 6.77271 34.8014 6.77271C34.6727 7.31617 34.5468 7.84926 34.4201 8.38218C33.7195 11.3295 33.0163 14.2763 32.3234 17.2251C32.2752 17.4299 32.1945 17.495 31.9581 17.4909C31.1106 17.4762 30.2626 17.4852 29.4148 17.4852C29.3388 17.4852 29.2627 17.4852 29.1608 17.4852Z" fill="#195A38"/>
</svg>
